<svg width="57" height="56" fill="none" xmlns="http://www.w3.org/2000/svg"><g clip-path="url(#clip0_6_133)"><mask id="a" style="mask-type:alpha" maskUnits="userSpaceOnUse" x="0" y="0" width="57" height="56"><path fill-rule="evenodd" clip-rule="evenodd" d="M1.696 21.113a28.963 28.963 0 00-.714 11.09 28.82 28.82 0 003.511 10.525 28.34 28.34 0 007.204 8.356A27.811 27.811 0 0021.495 56l1.253-4.755C12.393 48.583 4.742 39.185 4.742 28c0-2.022.25-3.985.72-5.86l-3.766-1.027zm9.981-9.989l-2.733-2.78a27.972 27.972 0 019.083-6.176A27.586 27.586 0 0128.742 0c3.677 0 7.318.737 10.716 2.168a27.974 27.974 0 019.084 6.175l-2.735 2.782A23.926 23.926 0 0028.742 4a23.926 23.926 0 00-17.065 7.124zm33.43.714A22.93 22.93 0 0028.741 5a22.93 22.93 0 00-16.364 6.838l1.402 1.426A20.936 20.936 0 0128.742 7a20.936 20.936 0 0114.962 6.264l1.402-1.426zm6.915 10.302l3.767-1.027a28.964 28.964 0 01.714 11.09 28.821 28.821 0 01-3.511 10.525 28.34 28.34 0 01-7.204 8.356A27.811 27.811 0 0135.99 56l-1.253-4.755C45.091 48.583 52.742 39.185 52.742 28c0-2.022-.25-3.985-.72-5.86zm-17.54 28.138c9.925-2.55 17.26-11.557 17.26-22.278 0-1.93-.238-3.806-.686-5.597l-1.93.526c.403 1.624.616 3.323.616 5.071 0 9.792-6.702 18.019-15.769 20.343l.51 1.935zm-11.48 0C13.077 47.728 5.742 38.721 5.742 28c0-1.93.238-3.806.686-5.598l1.93.527A21.047 21.047 0 007.743 28c0 9.792 6.702 18.02 15.77 20.343l-.51 1.935zm.765-2.902C15.128 45.164 8.742 37.328 8.742 28c0-1.657.202-3.268.582-4.808l19.419 5.293-14.261-14.508A19.94 19.94 0 0128.742 8a19.94 19.94 0 0114.261 5.978l-14.26 14.507 19.418-5.293c.38 1.54.581 3.15.581 4.808 0 9.328-6.386 17.164-15.024 19.376l-4.976-18.89-4.975 18.89z" fill="#42D9AC"/></mask><g mask="url(#a)" fill="#D62F0E"><path opacity=".1" d="M56.742 28c0-15.464-12.536-28-28-28s-28 12.536-28 28 12.536 28 28 28 28-12.536 28-28z"/><path opacity=".2" d="M52.742 28c0-13.255-10.745-24-24-24s-24 10.745-24 24 10.745 24 24 24 24-10.745 24-24z"/><path d="M48.742 28c0-11.046-8.954-20-20-20s-20 8.954-20 20 8.954 20 20 20 20-8.954 20-20z"/></g><g clip-path="url(#clip1_6_133)"><path d="M28.742 14h8a4 4 0 014 4v15.277a4 4 0 01-2.139 3.54L28.743 42l-9.861-5.183a4 4 0 01-2.14-3.54V18a4 4 0 014-4h8z" fill="#fff"/><path d="M28.743 27h12v6.528a4 4 0 01-2.212 3.578L28.742 42l-9.789-4.894a4 4 0 01-2.21-3.578V27h12z" fill="#101B37"/><path d="M29.117 31.328l-2.875 2.375v2.547c0 .14.11.25.25.25h1.75c.125 0 .235-.11.235-.25v-1.5c0-.125.125-.25.25-.25h1c.14 0 .25.125.25.25v1.5c0 .14.125.25.25.25h1.765c.125 0 .25-.11.25-.25v-2.563l-2.89-2.359a.17.17 0 00-.11-.047.178.178 0 00-.125.047zm4.547 1.61l-1.297-1.079v-2.156a.19.19 0 00-.187-.187h-.875a.18.18 0 00-.188.187v1.125l-1.406-1.156a.803.803 0 00-.953 0l-3.953 3.265a.186.186 0 00-.078.141c0 .047.03.094.046.125l.407.484c.03.047.078.063.14.063a.177.177 0 00.125-.047l3.672-3.016a.177.177 0 01.125-.046c.031 0 .078.015.11.047l3.671 3.015a.177.177 0 00.125.047c.063 0 .11-.016.141-.063l.406-.484a.177.177 0 00.047-.125.187.187 0 00-.078-.14z" fill="#fff"/></g></g><defs><clipPath id="clip0_6_133"><path fill="#fff" transform="translate(.742)" d="M0 0h56v56H0z"/></clipPath><clipPath id="clip1_6_133"><path fill="#fff" transform="translate(16.742 14)" d="M0 0h24v28H0z"/></clipPath></defs></svg>