<svg width="496" height="258" fill="none" xmlns="http://www.w3.org/2000/svg"><path d="M442.872 94.874l-45.355 18.055 40.141-25.246c-6.524-8.565-13.853-16.676-21.917-24.257l-196.698 41.121 177.674-57.006A226.935 226.935 0 00370.916 31L71.195 71.606C39.372 105.077 22.025 146.653 22 189.51h451.162c-.018-33.238-10.467-65.882-30.29-94.635zm-96.747-75.781C315.384 6.49 281.623-.04 247.421 0c-69.609 0-131.844 26.532-173.18 68.22 70.784-13.038 194.026-35.605 271.884-49.127z" fill="#D7F2AA"/><ellipse rx="244.862" ry="60.77" transform="rotate(3.049 -3327.11 4743.02) skewX(.123)" fill="#B6CD91"/><path d="M362.709 45H141v102.277h221.709V45z" fill="#E0E0E0"/><path d="M363 56H140v91h223V56z" fill="#fff"/><path d="M200.38 79.214a22.895 22.895 0 00-12.652 3.81 22.642 22.642 0 00-8.387 10.143 22.442 22.442 0 00-1.296 13.06 22.56 22.56 0 006.232 11.573 22.827 22.827 0 0011.661 6.186 22.93 22.93 0 0013.157-1.286 22.738 22.738 0 0010.22-8.325 22.465 22.465 0 002.105-21.208 22.598 22.598 0 00-4.937-7.333 22.779 22.779 0 00-7.388-4.9 22.921 22.921 0 00-8.715-1.72zm4.085 23.146v10.703h-8.051V102.36a6.619 6.619 0 01-2.347-3.325 6.572 6.572 0 01.05-4.06 6.628 6.628 0 012.429-3.267 6.702 6.702 0 013.894-1.245c1.397 0 2.759.435 3.893 1.245a6.628 6.628 0 012.429 3.267 6.572 6.572 0 01.05 4.06 6.619 6.619 0 01-2.347 3.325z" fill="#A0B77B"/><path d="M200.313 73a29.433 29.433 0 00-16.267 4.899 29.113 29.113 0 00-10.784 13.045 28.87 28.87 0 00-1.666 16.794 29.008 29.008 0 008.013 14.883 29.351 29.351 0 0014.992 7.955 29.485 29.485 0 0016.917-1.654 29.24 29.24 0 0013.14-10.706 28.92 28.92 0 004.934-16.149 28.96 28.96 0 00-8.576-20.553A29.387 29.387 0 00200.313 73zm5.249 29.766v13.761h-10.351v-13.761a8.516 8.516 0 01-3.019-4.277 8.45 8.45 0 01.064-5.223 8.519 8.519 0 013.123-4.203 8.621 8.621 0 0110.015 0 8.513 8.513 0 013.123 4.203 8.457 8.457 0 01.065 5.223 8.524 8.524 0 01-3.02 4.277zm126.772 19.238h-35.016v9.117h35.016v-9.117z" fill="#ABCC75"/><path d="M244.565 110.332V98.857h86.89v11.475h-86.89z" fill="#fff" stroke="#ABCC75" stroke-width="1.759"/><path d="M252.695 104.545h-1.611l1.433-1.419a.146.146 0 00.04-.098.142.142 0 00-.04-.098.14.14 0 00-.046-.03.14.14 0 00-.107 0 .148.148 0 00-.045.03l-1.432 1.421v-1.601a.138.138 0 00-.041-.097.139.139 0 00-.098-.041.144.144 0 00-.098.042.138.138 0 00-.041.096v1.601l-1.43-1.43a.139.139 0 00-.098-.04.14.14 0 00-.054.01.154.154 0 00-.045.03.141.141 0 000 .196l1.432 1.419h-1.613a.147.147 0 00-.097.041.143.143 0 00-.042.097.139.139 0 00.139.138h1.613l-1.432 1.422a.14.14 0 000 .196.145.145 0 00.197 0l1.43-1.422v1.599c0 .036.015.071.041.097a.139.139 0 00.237-.097v-1.599l1.432 1.422a.145.145 0 00.198 0 .144.144 0 00.04-.098.142.142 0 00-.04-.098l-1.433-1.422h1.611a.138.138 0 00.139-.138.136.136 0 00-.044-.092.135.135 0 00-.095-.037zm5.84-.002h-1.611l1.433-1.419a.144.144 0 00.04-.098.142.142 0 00-.04-.098.14.14 0 00-.046-.03.14.14 0 00-.107 0 .137.137 0 00-.045.03l-1.432 1.421v-1.601a.138.138 0 00-.041-.097.139.139 0 00-.098-.041.144.144 0 00-.098.042.134.134 0 00-.041.096v1.601l-1.43-1.429a.14.14 0 00-.045-.031.14.14 0 00-.054-.01.139.139 0 00-.053.01.14.14 0 00-.085.129c0 .036.014.071.04.097l1.432 1.419h-1.613a.143.143 0 00-.139.138.139.139 0 00.139.138h1.613l-1.432 1.422a.138.138 0 00-.04.098c0 .037.014.072.04.098a.145.145 0 00.197 0l1.43-1.422v1.599c0 .036.014.071.04.097a.139.139 0 00.197 0 .138.138 0 00.041-.097v-1.599l1.432 1.422a.145.145 0 00.198 0 .142.142 0 00.04-.098.142.142 0 00-.04-.098l-1.433-1.422h1.611a.14.14 0 00.139-.138.14.14 0 00-.044-.092.14.14 0 00-.095-.037zm5.839.08h-1.61l1.432-1.419a.14.14 0 00-.152-.226.137.137 0 00-.045.03l-1.432 1.421v-1.601a.14.14 0 00-.139-.138.144.144 0 00-.098.042.134.134 0 00-.041.096v1.601l-1.43-1.429a.14.14 0 00-.045-.031.14.14 0 00-.054-.01.139.139 0 00-.053.01.14.14 0 00-.085.129c0 .036.014.071.04.098l1.432 1.418h-1.613a.144.144 0 00-.098.042.134.134 0 000 .194c.026.026.061.04.098.04h1.613l-1.432 1.422a.138.138 0 00-.04.098c0 .037.014.072.04.098a.143.143 0 00.197 0l1.43-1.422v1.599c0 .036.014.071.04.097a.14.14 0 00.099.041.14.14 0 00.139-.138v-1.599l1.432 1.422a.145.145 0 00.197 0 .138.138 0 00.04-.098.138.138 0 00-.04-.098l-1.432-1.422h1.61a.14.14 0 00.099-.04.138.138 0 00.04-.098.135.135 0 00-.043-.092.14.14 0 00-.096-.037zm5.84-.08h-1.61l1.432-1.419a.14.14 0 00-.152-.226.137.137 0 00-.045.03l-1.432 1.421v-1.601a.14.14 0 00-.14-.138.143.143 0 00-.139.138v1.601l-1.429-1.429a.14.14 0 00-.045-.031.14.14 0 00-.054-.01.139.139 0 00-.099.041.142.142 0 00-.04.098c0 .036.015.071.04.097l1.433 1.419h-1.613a.144.144 0 00-.098.042.134.134 0 00-.041.096c0 .037.014.072.04.098a.14.14 0 00.099.04h1.613l-1.433 1.422a.142.142 0 00-.04.098c0 .037.015.072.04.098a.145.145 0 00.198 0l1.429-1.422v1.599a.14.14 0 00.139.138.14.14 0 00.14-.138v-1.599l1.432 1.422a.145.145 0 00.197 0 .138.138 0 00.04-.098.138.138 0 00-.04-.098l-1.432-1.422h1.61a.142.142 0 00.099-.04.138.138 0 00.04-.098.135.135 0 00-.043-.092.14.14 0 00-.096-.037zm5.84 0h-1.61l1.432-1.419a.14.14 0 00-.152-.226.137.137 0 00-.045.03l-1.433 1.421v-1.601a.137.137 0 00-.04-.097.14.14 0 00-.099-.041.143.143 0 00-.139.138v1.601l-1.429-1.429a.151.151 0 00-.045-.031.144.144 0 00-.153.031.142.142 0 00-.04.098c0 .036.015.071.04.097l1.433 1.419h-1.613a.144.144 0 00-.14.138.139.139 0 00.14.138h1.613l-1.433 1.422a.142.142 0 00-.04.098c0 .037.015.072.04.098a.145.145 0 00.198 0l1.429-1.422v1.599c0 .036.015.071.041.097a.139.139 0 00.237-.097v-1.599l1.433 1.422a.143.143 0 00.197 0 .138.138 0 00.04-.098.138.138 0 00-.04-.098l-1.432-1.422h1.61a.138.138 0 00.139-.138.14.14 0 00-.043-.092.14.14 0 00-.096-.037zm5.842 0h-1.61l1.432-1.419a.14.14 0 00-.198-.196l-1.432 1.421v-1.601a.138.138 0 00-.041-.097.139.139 0 00-.098-.041.14.14 0 00-.097.042.14.14 0 00-.042.096v1.601l-1.429-1.429a.139.139 0 00-.099-.041.14.14 0 00-.054.01.14.14 0 00-.085.129c0 .036.014.071.04.097l1.432 1.419h-1.613a.143.143 0 00-.139.138.139.139 0 00.139.138h1.613l-1.432 1.422a.138.138 0 00-.04.098c0 .037.014.072.04.098a.145.145 0 00.198 0l1.429-1.422v1.599c0 .036.015.071.041.097a.139.139 0 00.237-.097v-1.599l1.432 1.422a.145.145 0 00.198 0 .138.138 0 00.04-.098.138.138 0 00-.04-.098l-1.432-1.422h1.61a.138.138 0 00.139-.138.136.136 0 00-.044-.092.14.14 0 00-.095-.037zm5.84 0h-1.611l1.433-1.419a.144.144 0 00.04-.098.142.142 0 00-.04-.098.14.14 0 00-.046-.03.14.14 0 00-.107 0 .148.148 0 00-.045.03l-1.432 1.421v-1.601a.138.138 0 00-.041-.097.139.139 0 00-.098-.041.144.144 0 00-.098.042.138.138 0 00-.041.096v1.601l-1.43-1.429a.14.14 0 00-.045-.031.139.139 0 00-.053-.01.14.14 0 00-.054.01.14.14 0 00-.085.129c0 .036.014.071.04.097l1.432 1.419h-1.613a.143.143 0 00-.139.138.139.139 0 00.139.138h1.613l-1.432 1.422a.138.138 0 00-.04.098c0 .037.014.072.04.098a.145.145 0 00.197 0l1.43-1.422v1.599c0 .036.015.071.041.097a.139.139 0 00.237-.097v-1.599l1.432 1.422a.145.145 0 00.198 0 .142.142 0 00.04-.098.142.142 0 00-.04-.098l-1.433-1.422h1.611a.138.138 0 00.139-.138.136.136 0 00-.044-.092.14.14 0 00-.095-.037zm5.838 0h-1.611l1.433-1.419a.144.144 0 00.04-.098.142.142 0 00-.04-.098.14.14 0 00-.046-.03.14.14 0 00-.107 0 .137.137 0 00-.045.03l-1.432 1.421v-1.601a.138.138 0 00-.041-.097.139.139 0 00-.098-.041.144.144 0 00-.098.042.134.134 0 00-.041.096v1.601l-1.43-1.429a.14.14 0 00-.045-.031.139.139 0 00-.053-.01.14.14 0 00-.054.01.14.14 0 00-.085.129c0 .036.014.071.04.097l1.432 1.419h-1.613a.14.14 0 00-.097.042.14.14 0 00-.042.096.139.139 0 00.139.138h1.613l-1.432 1.422a.138.138 0 00-.04.098c0 .037.014.072.04.098a.145.145 0 00.197 0l1.43-1.422v1.599c0 .036.014.071.04.097a.139.139 0 00.197 0 .138.138 0 00.041-.097v-1.599l1.432 1.422a.145.145 0 00.198 0 .142.142 0 00.04-.098.142.142 0 00-.04-.098l-1.433-1.422h1.611a.14.14 0 00.139-.138.136.136 0 00-.044-.092.14.14 0 00-.095-.037zm5.843 0h-1.61l1.432-1.419a.14.14 0 00-.152-.226.137.137 0 00-.045.03l-1.432 1.421v-1.601a.14.14 0 00-.139-.138.144.144 0 00-.098.042.134.134 0 00-.041.096v1.601l-1.43-1.429a.14.14 0 00-.045-.031.14.14 0 00-.054-.01.139.139 0 00-.053.01.14.14 0 00-.085.129c0 .036.014.071.04.097l1.432 1.419h-1.613a.144.144 0 00-.098.042.134.134 0 00-.041.096c0 .037.014.072.04.098.027.026.062.04.099.04h1.613l-1.432 1.422a.138.138 0 00-.04.098c0 .037.014.072.04.098a.143.143 0 00.197 0l1.43-1.422v1.599c0 .036.014.071.04.097a.14.14 0 00.099.041.14.14 0 00.139-.138v-1.599l1.432 1.422a.145.145 0 00.197 0 .138.138 0 00.04-.098.138.138 0 00-.04-.098l-1.432-1.422h1.61a.14.14 0 00.099-.04.138.138 0 00.04-.098.135.135 0 00-.043-.092.14.14 0 00-.096-.037zm5.838 0h-1.61l1.432-1.419a.14.14 0 00-.152-.226.137.137 0 00-.045.03l-1.432 1.421v-1.601a.14.14 0 00-.14-.138.143.143 0 00-.139.138v1.601l-1.429-1.429a.14.14 0 00-.045-.031.14.14 0 00-.054-.01.139.139 0 00-.099.041.142.142 0 00-.04.098c0 .036.015.071.04.097l1.433 1.419h-1.613a.144.144 0 00-.098.042.134.134 0 00-.041.096c0 .037.014.072.04.098a.14.14 0 00.099.04h1.613l-1.433 1.422a.142.142 0 00-.04.098c0 .037.015.072.04.098a.145.145 0 00.198 0l1.429-1.422v1.599a.14.14 0 00.139.138.14.14 0 00.14-.138v-1.599l1.432 1.422a.145.145 0 00.197 0 .138.138 0 00.04-.098.138.138 0 00-.04-.098l-1.432-1.422h1.61a.142.142 0 00.099-.04.138.138 0 00.04-.098.135.135 0 00-.043-.092.14.14 0 00-.096-.037zm5.842.08h-1.61l1.432-1.419a.14.14 0 00-.152-.226.127.127 0 00-.045.03l-1.433 1.421v-1.601a.137.137 0 00-.04-.097.143.143 0 00-.099-.041.143.143 0 00-.139.138v1.601L307.582 103a.135.135 0 00-.099-.041.135.135 0 00-.099.041.142.142 0 00-.04.098c0 .036.015.071.04.098l1.433 1.418h-1.613a.144.144 0 00-.14.138.139.139 0 00.14.138h1.613l-1.433 1.422a.142.142 0 00-.04.098c0 .037.015.072.04.098a.145.145 0 00.198 0l1.429-1.422v1.599c0 .036.015.071.041.097a.139.139 0 00.237-.097v-1.599l1.433 1.422a.143.143 0 00.197 0 .138.138 0 00.04-.098.138.138 0 00-.04-.098l-1.432-1.422h1.61a.138.138 0 00.139-.138.138.138 0 00-.139-.129zm5.752 0h-1.61l1.432-1.419a.14.14 0 00-.198-.196l-1.432 1.421v-1.601a.137.137 0 00-.04-.097.143.143 0 00-.099-.041.143.143 0 00-.139.138v1.601L313.334 103a.139.139 0 00-.099-.041.144.144 0 00-.054.01.142.142 0 00-.085.129c0 .036.015.071.04.098l1.432 1.418h-1.613a.143.143 0 00-.139.138.139.139 0 00.139.138h1.613l-1.432 1.422a.142.142 0 00-.04.098c0 .037.015.072.04.098a.145.145 0 00.198 0l1.429-1.422v1.599c0 .036.015.071.041.097a.139.139 0 00.237-.097v-1.599l1.432 1.422a.145.145 0 00.198 0 .138.138 0 00.04-.098.138.138 0 00-.04-.098l-1.432-1.422h1.61a.138.138 0 00.139-.138.138.138 0 00-.139-.129zm5.738 0h-1.61l1.432-1.419a.14.14 0 00-.152-.226.137.137 0 00-.045.03l-1.432 1.421v-1.601a.14.14 0 00-.14-.138.143.143 0 00-.139.138v1.601L319.072 103a.14.14 0 00-.045-.031.14.14 0 00-.054-.01.139.139 0 00-.099.041.142.142 0 00-.04.098c0 .036.015.071.04.098l1.433 1.418h-1.613a.144.144 0 00-.098.042.134.134 0 00-.041.096c0 .037.014.072.04.098a.14.14 0 00.099.04h1.613l-1.433 1.422a.142.142 0 00-.04.098c0 .037.015.072.04.098a.145.145 0 00.198 0l1.429-1.422v1.599a.14.14 0 00.139.138.14.14 0 00.14-.138v-1.599l1.432 1.422a.145.145 0 00.197 0 .138.138 0 00.04-.098.138.138 0 00-.04-.098l-1.432-1.422h1.61a.142.142 0 00.099-.04.138.138 0 00.04-.098.135.135 0 00-.043-.092.14.14 0 00-.096-.037zm5.74 0h-1.61l1.432-1.419a.14.14 0 00-.152-.226.137.137 0 00-.045.03l-1.432 1.421v-1.601a.138.138 0 00-.041-.097.139.139 0 00-.098-.041.144.144 0 00-.098.042.134.134 0 00-.041.096v1.601l-1.43-1.429a.14.14 0 00-.045-.031.14.14 0 00-.054-.01.139.139 0 00-.053.01.14.14 0 00-.085.129c0 .036.014.071.04.098l1.432 1.418h-1.613a.144.144 0 00-.098.042.138.138 0 00-.041.096.139.139 0 00.139.138h1.613l-1.432 1.422a.138.138 0 00-.04.098c0 .037.014.072.04.098a.145.145 0 00.197 0l1.43-1.422v1.599c0 .036.014.071.04.097a.139.139 0 00.197 0 .138.138 0 00.041-.097v-1.599l1.432 1.422a.145.145 0 00.197 0 .138.138 0 00.04-.098.138.138 0 00-.04-.098l-1.432-1.422h1.61a.139.139 0 00.14-.138.14.14 0 00-.044-.092.14.14 0 00-.096-.037z" fill="#ABCC75"/><path d="M244.565 90.483V79.008h86.89v11.475h-86.89z" fill="#fff" stroke="#ABCC75" stroke-width="1.759"/><path opacity=".5" fill="#ABCC75" d="M247.713 82.925h80.59v3.419h-80.59z"/><path d="M362.619 45H140.373v9.367h222.246V45z" fill="#ABCC75"/><path d="M147.055 50.045c0 .875-.715 1.586-1.6 1.586-.885 0-1.6-.711-1.6-1.586 0-.875.715-1.586 1.6-1.586.885 0 1.6.71 1.6 1.586z" fill="#FA5959" stroke="#fff" stroke-width=".3"/><path d="M153.698 50.045c0 .875-.716 1.586-1.6 1.586-.885 0-1.6-.711-1.6-1.586 0-.875.715-1.586 1.6-1.586.884 0 1.6.71 1.6 1.586z" fill="#FED253" stroke="#fff" stroke-width=".3"/><path d="M160.34 50.045c0 .875-.715 1.586-1.6 1.586-.885 0-1.6-.711-1.6-1.586 0-.875.715-1.586 1.6-1.586.885 0 1.6.71 1.6 1.586z" fill="#8CCF4D" stroke="#fff" stroke-width=".3"/><path opacity=".1" d="M144.838 147.522c.234.907 30.962 1.888 31.281 1.614.286-.351.533-.732.739-1.135l-31.914-2.251a8.765 8.765 0 00-.106 1.772z" fill="#000"/><path d="M159.673 152.206a3.998 3.998 0 00-1.337-3.004 4.07 4.07 0 00-3.149-1.012c-.179.02-.357.052-.532.097l-13.705-11.654.819-4.379-6.754-2.172-2.037 7.018a4.038 4.038 0 00.112 2.558 4.082 4.082 0 001.629 1.985l16.859 10.579a3.994 3.994 0 001.692 3.229 4.093 4.093 0 003.722.514c.78-.28 1.455-.79 1.935-1.462a4.016 4.016 0 00.746-2.297z" fill="#FFB774"/><path d="M125.601 165.723h17.669c0 .504 18.211.912 18.211.912.286.214.546.459.776.731a4.51 4.51 0 011.068 2.921v.73a4.55 4.55 0 01-1.348 3.227 4.62 4.62 0 01-3.253 1.337h-33.123a4.62 4.62 0 01-3.252-1.338 4.548 4.548 0 01-1.349-3.226v-.73a4.557 4.557 0 011.349-3.226 4.627 4.627 0 013.252-1.338z" fill="#333"/><path d="M144.822 175.399h-4.785v30.671h4.785v-30.671z" fill="#333"/><path d="M158.438 206.452c0 .575-7.25.223-16.193.223-8.944 0-16.194.352-16.194-.223 0-.574 7.25-5.128 16.194-5.128 8.943 0 16.193 4.554 16.193 5.128z" fill="#333"/><path d="M154.12 202.31l4.512-.001 2.147-11.61-6.66.001.001 11.61z" fill="#FFB774"/><path d="M152.969 206.649l14.549-.001v-.182a5.587 5.587 0 00-1.659-3.973 5.663 5.663 0 00-1.837-1.218 5.706 5.706 0 00-2.167-.427h-8.886v5.801z" fill="#2F2E41"/><path d="M160.869 195.111l8.995-20.012a7.283 7.283 0 00.233-5.337 7.354 7.354 0 00-3.478-4.078l-19.512-10.38-8.903-.751-8.213-.741-.059.1c-.076.127-1.842 3.153-.648 6.471.905 2.516 3.261 4.482 7 5.842 8.728 3.175 18.81 5.889 22.74 6.908a1.272 1.272 0 01.886 1.665l-8.357 18.627a1.631 1.631 0 00.689 1.966c.217.131.46.212.713.235l6.244.451a1.684 1.684 0 001.06-.257c.268-.173.48-.419.61-.709z" fill="#888"/><path d="M150.821 202.347l4.512-.001 2.147-11.61-6.66.001.001 11.61z" fill="#FFB774"/><path d="M150.024 206.649l14.549-.001v-.182a5.587 5.587 0 00-1.659-3.973 5.674 5.674 0 00-4.004-1.645h-8.887l.001 5.801z" fill="#2F2E41"/><path d="M157.556 196.206l8.995-20.012a7.283 7.283 0 00.233-5.337 7.35 7.35 0 00-3.478-4.078l-19.512-10.38-8.903-.751-6.433-.554.001-.087c-.075.127-1.841 3.153-.648 6.471.906 2.516 1.421 4.482 5.16 5.842 8.728 3.175 18.81 5.889 22.74 6.908a1.264 1.264 0 01.814.642 1.268 1.268 0 01.072 1.022l-8.357 18.627a1.637 1.637 0 00.689 1.967c.217.131.46.212.713.235l6.244.451a1.691 1.691 0 001.06-.258c.268-.172.48-.419.61-.708z" fill="#888"/><path d="M140.604 155.671c.431-.303 6.624 2.921 7.728.365-5.152-12.779-1.602-18.298-4.758-25.626a9.136 9.136 0 00-2.449-3.284 9.232 9.232 0 00-3.648-1.894l-8.189-.41-.042.021a9.535 9.535 0 00-4.298 4.177 9.433 9.433 0 00-.936 5.896c.03 7.976 4.84 14.058 3.158 19.843a1.862 1.862 0 00.178 1.455 1.786 1.786 0 001.147.843l10.812-1.431a1.834 1.834 0 001.478-.284l-.181.329z" fill="#333"/><path d="M132.022 121.576c4.992 0 9.039-4.016 9.039-8.968 0-4.953-4.047-8.968-9.039-8.968s-9.04 4.015-9.04 8.968c0 4.952 4.048 8.968 9.04 8.968z" fill="#FFB774"/><path d="M129.141 120.839c.48.209 1.464-3.588 1.023-4.348-.655-1.129-.616-1.121-1.051-1.868-.435-.747-.533-1.77.031-2.427.563-.658 1.866-.57 2.123.254-.165-1.566 1.396-2.824 2.942-3.178 1.546-.353 3.177-.134 4.732-.449 1.804-.365 3.681-1.865 2.962-3.834a2.802 2.802 0 00-.545-.889c-.832-.927-1.996-1.323-3.133-1.707-2.367-.796-4.798-1.603-7.296-1.515-4.103.144-7.982 2.959-9.365 6.794a9.62 9.62 0 00-.399 1.47c-.857 4.573 1.82 9.084 6.167 10.825l1.809.872zm47.405 14.421l1.037 6.106a.367.367 0 01-.022.202l-8.132 20.16a.378.378 0 01-.416.231.375.375 0 01-.315-.355l-.344-8.101a.387.387 0 01.027-.158l7.441-18.164a.377.377 0 01.392-.232.376.376 0 01.332.311z" fill="#333"/><path d="M175.972 135.729l.985 5.247-7.217 18.396-.937-5.918 7.169-17.725z" fill="#ABCC75"/><path d="M144.523 161.57c.178.688 23.491 1.432 23.733 1.224a4.92 4.92 0 00.56-.86c.245-.433.471-.867.471-.867l-.383-7.315-22.965-2.435s-1.016 6.104-1.335 8.909a6.721 6.721 0 00-.081 1.344z" fill="#3F3D56"/><path opacity=".25" d="M165.771 154.591l.002 6.302-10.158-.717.45-6.27 9.706.685zm-12.915.992l.062-.008-.48 2.679-5.643-.398.193-2.687 5.868.414z" fill="#333"/><path d="M135.035 150.712l19.665 3.64c.049.123.105.242.166.359a4.042 4.042 0 002.605 2.017 4.042 4.042 0 003.263-.586 4.017 4.017 0 001.667-2.465 3.986 3.986 0 00-.495-2.927 4.043 4.043 0 00-2.385-1.792 4.08 4.08 0 00-2.974.323 3.94 3.94 0 00-.458.286l-17.081-5.789-.874-4.369-7.085.465.734 7.324a3.977 3.977 0 001.039 2.291 4.038 4.038 0 002.213 1.223z" fill="#FFB774"/><path d="M130.749 143.502l10.295-3.357-2.402-6.841a4.079 4.079 0 00-1.785-2.166 4.136 4.136 0 00-5.247.889c-.63.746-.97 1.69-.959 2.663l.098 8.812z" fill="#333"/><path d="M365.479 213c13.056 0 23.639-2.035 23.639-4.545 0-2.511-10.583-4.546-23.639-4.546-13.055 0-23.639 2.035-23.639 4.546 0 2.51 10.584 4.545 23.639 4.545z" fill="#9AB869"/><path d="M365.872 210.127c1.52 0 2.751-1.613 2.751-3.602 0-1.99-1.231-3.602-2.751-3.602-1.519 0-2.751 1.612-2.751 3.602 0 1.989 1.232 3.602 2.751 3.602z" fill="#414764"/><path d="M365.872 205.722c1.52 0 2.751-1.612 2.751-3.602 0-1.989-1.231-3.601-2.751-3.601-1.519 0-2.751 1.612-2.751 3.601 0 1.99 1.232 3.602 2.751 3.602z" fill="#414764"/><path d="M365.872 201.317c1.52 0 2.751-1.613 2.751-3.602 0-1.989-1.231-3.602-2.751-3.602-1.519 0-2.751 1.613-2.751 3.602 0 1.989 1.232 3.602 2.751 3.602z" fill="#414764"/><path d="M365.872 196.914c1.52 0 2.751-1.613 2.751-3.602 0-1.989-1.231-3.602-2.751-3.602-1.519 0-2.751 1.613-2.751 3.602 0 1.989 1.232 3.602 2.751 3.602z" fill="#414764"/><path d="M365.876 192.512c1.52 0 2.751-1.612 2.751-3.601 0-1.99-1.231-3.602-2.751-3.602-1.519 0-2.751 1.612-2.751 3.602 0 1.989 1.232 3.601 2.751 3.601z" fill="#414764"/><path d="M355.569 149.968c-.376-.48-.72-.984-1.028-1.51l7.235-1.185-7.821.059a13.203 13.203 0 01-.257-10.445l10.495 5.442-9.673-7.116a13.186 13.186 0 0124.162 9.944 13.185 13.185 0 01-2.384 4.811c.586.744 1.09 1.55 1.502 2.403l-9.388 4.885 10.01-3.36a13.19 13.19 0 01-2.124 12.374 13.178 13.178 0 011.497 13.911 13.178 13.178 0 01-11.86 7.424 13.184 13.184 0 01-10.363-21.335 13.19 13.19 0 010-16.302h-.003z" fill="#ABCC75"/><path opacity=".1" d="M379.126 158.118a13.135 13.135 0 01-2.828 8.152 13.178 13.178 0 011.497 13.911 13.185 13.185 0 11-22.223-13.911c-1.769-2.244 23.554-9.631 23.554-8.152z" fill="#000"/><path d="M329.382 188.493c7.883 0 14.274-1.229 14.274-2.744 0-1.516-6.391-2.745-14.274-2.745-7.884 0-14.275 1.229-14.275 2.745 0 1.515 6.391 2.744 14.275 2.744z" fill="#9AB869"/><path d="M329.62 186.758c.918 0 1.661-.974 1.661-2.175 0-1.201-.743-2.175-1.661-2.175-.917 0-1.661.974-1.661 2.175 0 1.201.744 2.175 1.661 2.175z" fill="#414764"/><path d="M329.62 184.099c.918 0 1.661-.974 1.661-2.175 0-1.201-.743-2.175-1.661-2.175-.917 0-1.661.974-1.661 2.175 0 1.201.744 2.175 1.661 2.175z" fill="#414764"/><path d="M329.62 181.44c.918 0 1.661-.974 1.661-2.175 0-1.201-.743-2.175-1.661-2.175-.917 0-1.661.974-1.661 2.175 0 1.201.744 2.175 1.661 2.175z" fill="#414764"/><path d="M329.62 178.78c.918 0 1.661-.974 1.661-2.175 0-1.202-.743-2.175-1.661-2.175-.917 0-1.661.973-1.661 2.175 0 1.201.744 2.175 1.661 2.175z" fill="#414764"/><path d="M329.622 176.122c.918 0 1.661-.973 1.661-2.175 0-1.201-.743-2.175-1.661-2.175-.917 0-1.661.974-1.661 2.175 0 1.202.744 2.175 1.661 2.175z" fill="#414764"/><path d="M323.398 150.433a8.183 8.183 0 01-.621-.912l4.369-.715-4.723.035a7.968 7.968 0 01-.155-6.307l6.338 3.286-5.841-4.297a7.973 7.973 0 012.164-2.414 7.97 7.97 0 019.187-.18 7.962 7.962 0 011.799 11.504c.354.449.658.936.907 1.451l-5.669 2.95 6.044-2.029a7.95 7.95 0 01.305 3.898 7.953 7.953 0 01-1.587 3.574 7.956 7.956 0 01.904 8.4 7.958 7.958 0 01-11.386 3.269 7.964 7.964 0 01-3.691-7.599 7.947 7.947 0 011.658-4.07 7.961 7.961 0 010-9.844h-.002z" fill="#ABCC75"/><path opacity=".1" d="M337.622 155.353a7.93 7.93 0 01-1.707 4.923 7.957 7.957 0 01-2.034 11.67 7.957 7.957 0 01-8.449 0 7.967 7.967 0 01-3.691-7.6 7.972 7.972 0 011.658-4.07c-1.068-1.355 14.223-5.815 14.223-4.923z" fill="#000"/></svg>