<svg width="502" height="243" fill="none" xmlns="http://www.w3.org/2000/svg"><path d="M449.587 80.623l-45.54 15.327 40.305-21.431c-6.551-7.271-13.91-14.157-22.007-20.592L224.846 88.835l178.398-48.393c-8.153-5.115-16.81-9.808-25.906-14.042L76.395 60.87C44.443 89.285 27.025 124.579 27 160.96h453c-.018-28.215-10.509-55.927-30.413-80.336zm-97.142-64.415C321.579 5.51 287.681-.034 253.34 0 183.446 0 120.958 22.523 79.453 57.911c71.073-11.067 194.818-30.225 272.992-41.703z" fill="#D7F2AA"/><ellipse cx="252.626" cy="169.506" rx="245.845" ry="59.775" transform="rotate(2.987 252.626 169.506)" fill="#B6CD91"/><g filter="url(#filter0_d)"><path d="M359.611 196.076a7.67 7.67 0 017.67-7.669h57.644a7.67 7.67 0 017.67 7.669v6.136h-72.984v-6.136z" fill="#E0E0E0" stroke="#666" stroke-width=".807"/><path d="M71.85 130.253l-4.092-11.197h151.135l-3.937 11.203a6.056 6.056 0 01-2.064 2.825l-22.562 17.032a12.115 12.115 0 01-7.297 2.445h-78.377c-2.564 0-5.062-.814-7.134-2.325l-23.551-17.168a6.06 6.06 0 01-2.12-2.815z" fill="#E0E1E2" stroke="#666" stroke-width="2.018"/><rect x="106.266" y="131.973" width="76.859" height="19.296" rx="3.956" fill="#D6D7D9"/><path d="M230.719 113.285c0 1.097-.476 2.249-1.542 3.456-1.072 1.213-2.699 2.432-4.877 3.625-4.356 2.385-10.724 4.565-18.681 6.407-15.896 3.682-37.907 5.969-62.255 5.969-24.348 0-46.359-2.287-62.255-5.969-7.956-1.842-14.325-4.022-18.68-6.407-2.178-1.193-3.805-2.412-4.878-3.625-1.066-1.207-1.542-2.359-1.542-3.456 0-1.098.476-2.25 1.542-3.457 1.073-1.213 2.7-2.432 4.878-3.625 4.355-2.384 10.724-4.564 18.68-6.407 15.896-3.682 37.907-5.969 62.255-5.969 24.348 0 46.359 2.287 62.255 5.969 7.957 1.843 14.325 4.023 18.681 6.407 2.178 1.193 3.805 2.412 4.877 3.625 1.066 1.207 1.542 2.359 1.542 3.457z" fill="url(#paint0_radial)" stroke="#666" stroke-width="2.018"/><path d="M199.225 99.556c-.003.63-.301 1.301-.988 2.014-.69.715-1.735 1.432-3.133 2.131-2.793 1.399-6.871 2.668-11.958 3.733-10.164 2.126-24.226 3.409-39.771 3.333-15.545-.075-29.594-1.495-39.737-3.72-5.076-1.114-9.142-2.423-11.921-3.848-1.391-.714-2.43-1.441-3.112-2.163-.68-.719-.972-1.393-.968-2.022.003-.63.3-1.301.988-2.014.689-.715 1.734-1.432 3.132-2.132 2.794-1.398 6.872-2.667 11.959-3.732 10.164-2.126 24.226-3.409 39.77-3.333 15.545.075 29.594 1.495 39.737 3.72 5.076 1.114 9.142 2.423 11.922 3.848 1.39.714 2.429 1.44 3.111 2.163.68.719.972 1.393.969 2.022z" fill="#ABCC75" stroke="#666" stroke-width="1.211"/><path d="M194.49 95.769c-.003.616-.279 1.267-.905 1.954-.628.69-1.582 1.383-2.861 2.06-2.555 1.354-6.289 2.585-10.952 3.619-9.316 2.065-22.208 3.313-36.462 3.244-14.255-.07-27.134-1.443-36.43-3.599-4.653-1.079-8.374-2.346-10.916-3.725-1.272-.69-2.22-1.392-2.841-2.088-.619-.692-.889-1.346-.886-1.963.003-.627.289-1.36.935-2.183.643-.82 1.612-1.69 2.895-2.577 2.565-1.774 6.306-3.565 10.964-5.16 9.31-3.189 22.188-5.563 36.409-5.494 14.221.07 27.075 2.569 36.353 5.848 4.643 1.64 8.366 3.468 10.914 5.266 1.274.9 2.234 1.778 2.87 2.605.638.83.916 1.565.913 2.193z" fill="url(#paint1_linear)" stroke="#666" stroke-width="1.211"/><circle cx="81.027" cy="113.194" r="3.504" fill="#ABCC75" stroke="#666" stroke-width=".484"/><circle cx="102.558" cy="117.995" r="3.504" fill="#ABCC75" stroke="#666" stroke-width=".484"/><circle cx="130.05" cy="120.686" r="3.504" fill="#ABCC75" stroke="#666" stroke-width=".484"/><circle r="3.504" transform="matrix(-1 0 0 1 208.364 113.194)" fill="#ABCC75" stroke="#666" stroke-width=".484"/><circle r="3.504" transform="matrix(-1 0 0 1 186.836 117.995)" fill="#ABCC75" stroke="#666" stroke-width=".484"/><circle r="3.504" transform="matrix(-1 0 0 1 159.34 120.686)" fill="#ABCC75" stroke="#666" stroke-width=".484"/><g filter="url(#filter1_d)"><circle cx="143.444" cy="142.267" r="4.562" fill="#DDD"/><circle cx="143.444" cy="142.267" r="4.319" stroke="#666" stroke-width=".484"/></g><path d="M161.423 140.611a.81.81 0 01.576-.242h11.922a.81.81 0 01.592.258l1.456 1.566.295-.275-.295.275a.807.807 0 01.216.55v.614a.807.807 0 01-.808.807h-14.936a.807.807 0 01-.807-.807v-.595c0-.212.083-.415.232-.566l1.557-1.585-.288-.283.288.283z" fill="#DDD" stroke="#666" stroke-width=".807"/><path stroke="#666" stroke-width=".404" stroke-dasharray="0.4 0.4" d="M162.781 142.347h10.254"/><path d="M370.404 75.459a6.055 6.055 0 016.055-6.055h38.833a6.055 6.055 0 016.055 6.055v126.834h-50.943V75.459z" fill="url(#paint2_linear)" stroke="#666" stroke-width=".807"/><path d="M374 79.459A6.459 6.459 0 01380.459 73h31.083A6.458 6.458 0 01418 79.459v20.324h-44V79.459zm0 22.236h44v1.913h-44v-1.913zm0 3.826h44v1.914h-44v-1.914z" fill="#ABCC75" fill-opacity=".75"/><mask id="a" fill="#fff"><rect x="372.367" y="130.762" width="9.042" height="17.277" rx=".484"/></mask><rect x="372.367" y="130.762" width="9.042" height="17.277" rx=".484" fill="#EEE" stroke="#666" stroke-width="1.615" mask="url(#a)"/><rect x="372.517" y="131.15" width="8.742" height="16.977" rx=".334" fill="#EEE" stroke="#666" stroke-width=".3"/><path d="M375 134.984c0-.267.217-.484.484-.484h3.032c.267 0 .484.217.484.484v9.032a.484.484 0 01-.484.484h-3.032a.484.484 0 01-.484-.484v-9.032z" fill="#E0E0E0"/><path d="M380.668 155.667h-7.333a.167.167 0 00-.167.167v4.333c0 .092.075.167.167.167h.666v.833c0 .092.075.167.167.167h.5v.833c0 .092.075.167.167.167h4.333a.167.167 0 00.167-.167v-.833h.666a.167.167 0 00.167-.167v-.833h.5a.167.167 0 00.167-.167v-4.333a.167.167 0 00-.167-.167zm-.167 4.333h-.5a.166.166 0 00-.166.167V161h-.667a.167.167 0 00-.167.167V162h-4v-.833a.166.166 0 00-.166-.167h-.5v-.833a.167.167 0 00-.167-.167h-.667v-4h1.334v1.667a.166.166 0 10.333 0V156h.333v1.667a.167.167 0 00.334 0V156h.333v1.667a.166.166 0 10.333 0V156h.334v1.667a.166.166 0 10.333 0V156h.333v1.667a.167.167 0 00.334 0V156h.333v1.667a.166.166 0 10.333 0V156h.334v1.667a.166.166 0 10.333 0V156h1.333v4z" fill="#666"/><path d="M381.5 154h-9a.5.5 0 00-.5.5v9a.5.5 0 00.5.5h9a.5.5 0 00.5-.5v-9a.5.5 0 00-.5-.5zm.167 9.5a.167.167 0 01-.167.167h-9a.167.167 0 01-.167-.167v-9c0-.092.075-.167.167-.167h9c.092 0 .167.075.167.167v9zm-.999 5.167h-7.333a.167.167 0 00-.167.167v4.333c0 .092.075.167.167.167h.666v.833c0 .092.075.167.167.167h.5v.833c0 .092.075.167.167.167h4.333a.167.167 0 00.167-.167v-.833h.666a.167.167 0 00.167-.167v-.833h.5a.167.167 0 00.167-.167v-4.333a.167.167 0 00-.167-.167zm-.167 4.333h-.5a.166.166 0 00-.166.167V174h-.667a.167.167 0 00-.167.167V175h-4v-.833a.166.166 0 00-.166-.167h-.5v-.833a.167.167 0 00-.167-.167h-.667v-4h1.334v1.667a.166.166 0 10.333 0V169h.333v1.667a.167.167 0 00.334 0V169h.333v1.667a.166.166 0 10.333 0V169h.334v1.667a.166.166 0 10.333 0V169h.333v1.667a.167.167 0 00.334 0V169h.333v1.667a.166.166 0 10.333 0V169h.334v1.667a.166.166 0 10.333 0V169h1.333v4z" fill="#666"/><path d="M381.5 167h-9a.5.5 0 00-.5.5v9a.5.5 0 00.5.5h9a.5.5 0 00.5-.5v-9a.5.5 0 00-.5-.5zm.167 9.5a.167.167 0 01-.167.167h-9a.167.167 0 01-.167-.167v-9c0-.092.075-.167.167-.167h9c.092 0 .167.075.167.167v9z" fill="#666"/></g><path d="M187.602 135.944a1.75 1.75 0 011.431-2.034l7.866-1.332a1.75 1.75 0 012.015 1.424l.597 3.411a1.75 1.75 0 01-.862 1.824l-7.346 4.156a1.75 1.75 0 01-2.585-1.215l-1.116-6.234z" fill="#C4C4C4" stroke="#666" stroke-width=".5"/><mask id="b" fill="#fff"><path d="M368.936 175.882v-5.672a.778.778 0 00-.777-.777l-4.38.001v-.256a.26.26 0 00-.26-.26h-4.123v5.933a.26.26 0 01-.444.184.256.256 0 01-.077-.184v-5.834l-3.465 1.733a.26.26 0 00-.144.233v.771h-.898a.649.649 0 00-.635.516h-2.848a.26.26 0 00-.261.26v1.032a.262.262 0 00.261.26h2.848a.647.647 0 00.635.516h.898v.771a.256.256 0 00.143.233l3.466 1.733v-1.193a.26.26 0 01.521 0v1.292h4.123a.26.26 0 00.26-.26v-.256h4.38a.778.778 0 00.777-.776zm-14.568-2.065a.13.13 0 01-.129-.129v-1.284a.13.13 0 01.037-.092.136.136 0 01.092-.038h.897v1.542l-.897.001zm2.446.52a.26.26 0 01-.26-.26v-2.063a.26.26 0 01.521 0v2.063a.26.26 0 01-.261.26zm1.032 1.032a.26.26 0 01-.26-.26v-4.126a.26.26 0 11.52 0v4.126a.26.26 0 01-.26.26zm10.569-1.032v.511h-1.542v-.511h1.542zm0-2.062v.51h-1.542v-.51h1.542zm-6.702 1.284a.525.525 0 01-.513-.513.513.513 0 01.514-.514h3.091v1.027h-3.092zm6.446 2.578h-4.38v-2.058l1.287.001a.26.26 0 00.26-.261v-1.547a.268.268 0 00-.26-.26h-1.287v-2.058h4.38c.141 0 .256.115.256.256v.513h-1.802a.26.26 0 00-.261.26v4.125a.261.261 0 00.261.261h1.802v.512a.256.256 0 01-.256.256z"/></mask><path d="M368.936 175.882v-5.672a.778.778 0 00-.777-.777l-4.38.001v-.256a.26.26 0 00-.26-.26h-4.123v5.933a.26.26 0 01-.444.184.256.256 0 01-.077-.184v-5.834l-3.465 1.733a.26.26 0 00-.144.233v.771h-.898a.649.649 0 00-.635.516h-2.848a.26.26 0 00-.261.26v1.032a.262.262 0 00.261.26h2.848a.647.647 0 00.635.516h.898v.771a.256.256 0 00.143.233l3.466 1.733v-1.193a.26.26 0 01.521 0v1.292h4.123a.26.26 0 00.26-.26v-.256h4.38a.778.778 0 00.777-.776zm-14.568-2.065a.13.13 0 01-.129-.129v-1.284a.13.13 0 01.037-.092.136.136 0 01.092-.038h.897v1.542l-.897.001zm2.446.52a.26.26 0 01-.26-.26v-2.063a.26.26 0 01.521 0v2.063a.26.26 0 01-.261.26zm1.032 1.032a.26.26 0 01-.26-.26v-4.126a.26.26 0 11.52 0v4.126a.26.26 0 01-.26.26zm10.569-1.032v.511h-1.542v-.511h1.542zm0-2.062v.51h-1.542v-.51h1.542zm-6.702 1.284a.525.525 0 01-.513-.513.513.513 0 01.514-.514h3.091v1.027h-3.092zm6.446 2.578h-4.38v-2.058l1.287.001a.26.26 0 00.26-.261v-1.547a.268.268 0 00-.26-.26h-1.287v-2.058h4.38c.141 0 .256.115.256.256v.513h-1.802a.26.26 0 00-.261.26v4.125a.261.261 0 00.261.261h1.802v.512a.256.256 0 01-.256.256z" fill="#EEE" stroke="#666" stroke-width=".5" mask="url(#b)"/><mask id="c" fill="#fff"><path d="M192.158 140.882v-5.672c0-.428.348-.777.776-.777l4.381.001v-.256a.259.259 0 01.26-.26h4.123v5.933a.26.26 0 10.52 0v-5.834l3.466 1.733a.262.262 0 01.144.233v.771h.897a.65.65 0 01.636.516h2.848a.26.26 0 01.26.26v1.032a.26.26 0 01-.26.26h-2.848a.647.647 0 01-.635.516h-.898v.771a.26.26 0 01-.144.233l-3.465 1.733v-1.193a.26.26 0 00-.521 0v1.292h-4.123a.26.26 0 01-.26-.26v-.256h-4.381a.777.777 0 01-.776-.776zm14.568-2.065a.13.13 0 00.129-.129v-1.284a.126.126 0 00-.038-.092.131.131 0 00-.091-.038h-.897v1.542l.897.001zm-2.447.52a.26.26 0 00.261-.26v-2.063a.26.26 0 00-.521 0v2.063c0 .144.116.26.26.26zm-1.031 1.032a.26.26 0 00.26-.26v-4.126a.26.26 0 00-.26-.26.259.259 0 00-.26.26v4.126c0 .143.116.26.26.26zm-10.569-1.032v.511h1.542v-.511h-1.542zm0-2.062v.51h1.542v-.51h-1.542zm6.701 1.284a.527.527 0 00.514-.513.515.515 0 00-.514-.514h-3.091v1.027h3.091zm-6.445 2.578h4.38v-2.058l-1.287.001a.26.26 0 01-.26-.261v-1.547c0-.138.122-.26.26-.26h1.287v-2.058h-4.38a.256.256 0 00-.256.256v.513h1.802a.26.26 0 01.26.26v4.125a.26.26 0 01-.26.261h-1.802v.512c0 .142.115.256.256.256z"/></mask><path d="M192.158 140.882v-5.672c0-.428.348-.777.776-.777l4.381.001v-.256a.259.259 0 01.26-.26h4.123v5.933a.26.26 0 10.52 0v-5.834l3.466 1.733a.262.262 0 01.144.233v.771h.897a.65.65 0 01.636.516h2.848a.26.26 0 01.26.26v1.032a.26.26 0 01-.26.26h-2.848a.647.647 0 01-.635.516h-.898v.771a.26.26 0 01-.144.233l-3.465 1.733v-1.193a.26.26 0 00-.521 0v1.292h-4.123a.26.26 0 01-.26-.26v-.256h-4.381a.777.777 0 01-.776-.776zm14.568-2.065a.13.13 0 00.129-.129v-1.284a.126.126 0 00-.038-.092.131.131 0 00-.091-.038h-.897v1.542l.897.001zm-2.447.52a.26.26 0 00.261-.26v-2.063a.26.26 0 00-.521 0v2.063c0 .144.116.26.26.26zm-1.031 1.032a.26.26 0 00.26-.26v-4.126a.26.26 0 00-.26-.26.259.259 0 00-.26.26v4.126c0 .143.116.26.26.26zm-10.569-1.032v.511h1.542v-.511h-1.542zm0-2.062v.51h1.542v-.51h-1.542zm6.701 1.284a.527.527 0 00.514-.513.515.515 0 00-.514-.514h-3.091v1.027h3.091zm-6.445 2.578h4.38v-2.058l-1.287.001a.26.26 0 01-.26-.261v-1.547c0-.138.122-.26.26-.26h1.287v-2.058h-4.38a.256.256 0 00-.256.256v.513h1.802a.26.26 0 01.26.26v4.125a.26.26 0 01-.26.261h-1.802v.512c0 .142.115.256.256.256z" fill="#EEE" stroke="#666" stroke-width=".5" mask="url(#c)"/><path d="M350.654 173H234.589c-5.523 0-10-4.477-10-10v-15c0-5.523-4.477-10-10-10H210" stroke="#666"/><defs><linearGradient id="paint1_linear" x1="143.387" y1="107.56" x2="143.358" y2="64.712" gradientUnits="userSpaceOnUse"><stop stop-color="#fff"/><stop offset="1" stop-color="#E0E1E2"/></linearGradient><linearGradient id="paint2_linear" x1="395.875" y1="69" x2="395.875" y2="202.697" gradientUnits="userSpaceOnUse"><stop stop-color="#fff"/><stop offset="1" stop-color="#EEE"/></linearGradient><filter id="filter0_d" x="49.261" y="67.087" width="389.477" height="145.175" filterUnits="userSpaceOnUse" color-interpolation-filters="sRGB"><feFlood flood-opacity="0" result="BackgroundImageFix"/><feColorMatrix in="SourceAlpha" values="0 0 0 0 0 0 0 0 0 0 0 0 0 0 0 0 0 0 127 0"/><feOffset dy="3.826"/><feGaussianBlur stdDeviation="2.87"/><feColorMatrix values="0 0 0 0 0 0 0 0 0 0 0 0 0 0 0 0 0 0 0.15 0"/><feBlend in2="BackgroundImageFix" result="effect1_dropShadow"/><feBlend in="SourceGraphic" in2="effect1_dropShadow" result="shape"/></filter><filter id="filter1_d" x="137.672" y="137.544" width="10.334" height="9.769" filterUnits="userSpaceOnUse" color-interpolation-filters="sRGB"><feFlood flood-opacity="0" result="BackgroundImageFix"/><feColorMatrix in="SourceAlpha" values="0 0 0 0 0 0 0 0 0 0 0 0 0 0 0 0 0 0 127 0"/><feOffset dx="-.888" dy=".161"/><feGaussianBlur stdDeviation=".161"/><feColorMatrix values="0 0 0 0 0 0 0 0 0 0 0 0 0 0 0 0 0 0 0.25 0"/><feBlend in2="BackgroundImageFix" result="effect1_dropShadow"/><feBlend in="SourceGraphic" in2="effect1_dropShadow" result="shape"/></filter><radialGradient id="paint0_radial" cx="0" cy="0" r="1" gradientUnits="userSpaceOnUse" gradientTransform="matrix(108.10397 -6.66116 28.75987 466.74377 143.376 113.294)"><stop stop-color="#fff"/><stop offset="1" stop-color="#E0E1E2"/></radialGradient></defs></svg>