<svg width="498" height="243" fill="none" xmlns="http://www.w3.org/2000/svg"><path d="M449.587 80.623l-45.54 15.327 40.305-21.431c-6.551-7.271-13.91-14.157-22.007-20.592L224.846 88.835l178.398-48.393c-8.153-5.115-16.81-9.808-25.906-14.042L76.395 60.87C44.443 89.285 27.025 124.579 27 160.96h453c-.018-28.215-10.509-55.927-30.413-80.336zm-97.142-64.415C321.579 5.51 287.681-.034 253.34 0 183.446 0 120.958 22.523 79.453 57.911c71.073-11.067 194.818-30.225 272.992-41.703z" fill="#D7F2AA"/><ellipse cx="250.626" cy="168.506" rx="245.845" ry="59.775" transform="rotate(2.987 250.626 168.506)" fill="#B6CD91"/><g filter="url(#filter0_d)"><path d="M359.611 196.076a7.67 7.67 0 017.67-7.669h57.644a7.67 7.67 0 017.67 7.669v6.136h-72.984v-6.136z" fill="#E0E0E0" stroke="#666" stroke-width=".807"/><rect x="364.536" y="135.687" width="6.217" height="9.446" rx=".807" fill="#EEE" stroke="#666" stroke-width=".807"/><mask id="a" fill="#fff"><rect x="366.477" y="137.867" width="2.341" height="2.18" rx=".323"/></mask><rect x="366.477" y="137.867" width="2.341" height="2.18" rx=".323" fill="#ABCC75" stroke="#666" stroke-width=".807" mask="url(#a)"/><mask id="b" fill="#fff"><rect x="366.477" y="140.854" width="2.341" height="2.18" rx=".323"/></mask><rect x="366.477" y="140.854" width="2.341" height="2.18" rx=".323" fill="#ABCC75" stroke="#666" stroke-width=".807" mask="url(#b)"/><path d="M71.85 130.253l-4.092-11.197h151.135l-3.937 11.203a6.056 6.056 0 01-2.064 2.825l-22.562 17.032a12.115 12.115 0 01-7.297 2.445h-78.377c-2.564 0-5.062-.814-7.134-2.325l-23.551-17.168a6.06 6.06 0 01-2.12-2.815z" fill="#E0E1E2" stroke="#666" stroke-width="2.018"/><rect x="106.266" y="131.973" width="76.859" height="19.296" rx="3.956" fill="#D6D7D9"/><path d="M230.719 113.364c0 1.098-.476 2.249-1.542 3.456-1.072 1.214-2.699 2.432-4.877 3.625-4.356 2.385-10.724 4.565-18.681 6.407-15.896 3.682-37.907 5.969-62.255 5.969-24.348 0-46.359-2.287-62.255-5.969-7.956-1.842-14.325-4.022-18.68-6.407-2.178-1.193-3.805-2.411-4.878-3.625-1.066-1.207-1.542-2.358-1.542-3.456 0-1.098.476-2.25 1.542-3.457 1.073-1.213 2.7-2.432 4.878-3.625 4.355-2.384 10.724-4.564 18.68-6.407 15.896-3.682 37.907-5.968 62.255-5.968 24.348 0 46.359 2.286 62.255 5.968 7.957 1.843 14.325 4.023 18.681 6.407 2.178 1.193 3.805 2.412 4.877 3.625 1.066 1.207 1.542 2.359 1.542 3.457z" fill="url(#paint0_radial)" stroke="#666" stroke-width="2.018"/><path d="M199.225 99.635c-.003.63-.301 1.301-.988 2.014-.69.715-1.735 1.432-3.133 2.131-2.793 1.399-6.871 2.668-11.958 3.733-10.164 2.126-24.226 3.409-39.771 3.333-15.545-.075-29.594-1.494-39.737-3.72-5.076-1.114-9.142-2.423-11.921-3.848-1.391-.714-2.43-1.441-3.112-2.163-.68-.719-.972-1.393-.968-2.022.003-.63.3-1.301.988-2.014.689-.715 1.734-1.432 3.132-2.131 2.794-1.399 6.872-2.668 11.959-3.733 10.164-2.126 24.226-3.409 39.77-3.333 15.545.075 29.594 1.495 39.737 3.72 5.076 1.114 9.142 2.423 11.922 3.849 1.39.713 2.429 1.44 3.111 2.162.68.719.972 1.393.969 2.022z" fill="#ABCC75" stroke="#666" stroke-width="1.211"/><path d="M194.49 95.769c-.003.616-.279 1.267-.905 1.954-.628.69-1.582 1.383-2.861 2.06-2.555 1.354-6.289 2.585-10.952 3.619-9.316 2.065-22.208 3.313-36.462 3.244-14.255-.07-27.134-1.443-36.43-3.599-4.653-1.079-8.374-2.346-10.916-3.725-1.272-.69-2.22-1.392-2.841-2.088-.619-.692-.889-1.346-.886-1.963.003-.627.289-1.36.935-2.183.643-.82 1.612-1.69 2.895-2.577 2.565-1.774 6.306-3.565 10.964-5.16 9.31-3.189 22.188-5.563 36.409-5.494 14.221.07 27.075 2.569 36.353 5.848 4.643 1.64 8.366 3.468 10.914 5.266 1.274.9 2.234 1.778 2.87 2.605.638.83.916 1.565.913 2.193z" fill="url(#paint1_linear)" stroke="#666" stroke-width="1.211"/><circle cx="81.027" cy="113.194" r="3.504" fill="#ABCC75" stroke="#666" stroke-width=".484"/><circle cx="102.558" cy="117.995" r="3.504" fill="#ABCC75" stroke="#666" stroke-width=".484"/><circle cx="130.05" cy="120.686" r="3.504" fill="#ABCC75" stroke="#666" stroke-width=".484"/><circle r="3.504" transform="matrix(-1 0 0 1 208.364 113.194)" fill="#ABCC75" stroke="#666" stroke-width=".484"/><circle r="3.504" transform="matrix(-1 0 0 1 186.836 117.995)" fill="#ABCC75" stroke="#666" stroke-width=".484"/><circle r="3.504" transform="matrix(-1 0 0 1 159.34 120.686)" fill="#ABCC75" stroke="#666" stroke-width=".484"/><g filter="url(#filter1_d)"><circle cx="143.444" cy="142.267" r="4.562" fill="#DDD"/><circle cx="143.444" cy="142.267" r="4.319" stroke="#666" stroke-width=".484"/></g><path d="M161.423 140.611a.81.81 0 01.576-.242h11.922a.81.81 0 01.592.258l1.456 1.566.295-.275-.295.275a.807.807 0 01.216.55v.614a.807.807 0 01-.808.807h-14.936a.807.807 0 01-.807-.807v-.595c0-.212.083-.415.232-.566l1.557-1.585-.288-.283.288.283z" fill="#DDD" stroke="#666" stroke-width=".807"/><path stroke="#666" stroke-width=".404" stroke-dasharray="0.4 0.4" d="M162.781 142.348h10.254"/><mask id="c" fill="#fff"><rect x="162.781" y="141.661" width="9.93" height="5.167" rx=".484"/></mask><rect x="162.781" y="141.661" width="9.93" height="5.167" rx=".484" fill="#EEE" stroke="#666" stroke-width="1.615" mask="url(#c)"/><mask id="d" fill="#fff"><rect x="165.203" y="159.665" width="5.086" height="5.167" rx=".484"/></mask><rect x="165.203" y="159.665" width="5.086" height="5.167" rx=".484" fill="#EEE" stroke="#666" stroke-width="1.615" mask="url(#d)"/><mask id="e" fill="#fff"><rect x="160.52" y="145.859" width="14.451" height="16.389" rx=".484"/></mask><rect x="160.52" y="145.859" width="14.451" height="16.389" rx=".484" fill="#EEE" stroke="#666" stroke-width="1.615" mask="url(#e)"/><path stroke="#ABCC75" stroke-width=".807" stroke-linecap="round" d="M165.607 153.691h4.359m-4.359 2.584h4.359"/><path d="M167.785 164.388v23.88c0 7.924 6.424 14.348 14.348 14.348h121.309c7.924 0 14.348-6.424 14.348-14.348v-33.954c0-7.924 6.424-14.348 14.348-14.348h7.289" stroke="#666" stroke-width="1.211"/><rect x="339.911" y="137.302" width="4.36" height="6.217" rx=".807" fill="#EEE" stroke="#666" stroke-width=".807"/><rect x="342.497" y="133.184" width="22.202" height="14.451" rx=".807" fill="#EEE" stroke="#666" stroke-width=".807"/><path d="M354.036 144.419a.625.625 0 00.174-.87l-1.254-1.881a.627.627 0 10-1.043.696l1.254 1.881a.627.627 0 00.869.174zm1.534-6.792a.626.626 0 00-.627-.627h-3.762a.627.627 0 100 1.254h3.762c.347 0 .627-.28.627-.627z" fill="#666"/><path d="M361.84 140.763a.627.627 0 00-.627-.627h-13.586a.626.626 0 100 1.254h13.586a.627.627 0 00.627-.627zm-3.762 3.134a.626.626 0 00-.627-.627h-3.762a.626.626 0 100 1.254h3.762a.627.627 0 00.627-.627z" fill="#666"/><path d="M350.449 139.856l1.254-1.881a.626.626 0 00-1.043-.696l-1.254 1.881a.63.63 0 00.174.87.626.626 0 00.869-.174zm11.207 1.35a.626.626 0 000-.886l-1.254-1.255a.628.628 0 00-.886.887l1.254 1.254a.626.626 0 00.886 0z" fill="#666"/><path d="M360.402 142.46l1.254-1.254a.627.627 0 00-.886-.887l-1.254 1.254a.625.625 0 000 .887.626.626 0 00.886 0z" fill="#666"/><path d="M370.404 75.459a6.055 6.055 0 016.055-6.055h38.833a6.055 6.055 0 016.055 6.055v126.834h-50.943V75.459z" fill="url(#paint2_linear)" stroke="#666" stroke-width=".807"/><path d="M374.48 79.285a6.459 6.459 0 016.459-6.459h31.083a6.459 6.459 0 016.459 6.459v20.324H374.48V79.285zm0 22.237h44.001v1.914H374.48v-1.914zm0 3.827h44.001v1.913H374.48v-1.913z" fill="#ABCC75" fill-opacity=".75"/><mask id="f" fill="#fff"><rect x="372.367" y="130.762" width="9.042" height="17.277" rx=".484"/></mask><rect x="372.367" y="130.762" width="9.042" height="17.277" rx=".484" fill="#EEE" stroke="#666" stroke-width="1.615" mask="url(#f)"/><rect x="372.517" y="131.15" width="8.742" height="16.977" rx=".334" fill="#EEE" stroke="#666" stroke-width=".3"/><path d="M375 134.984c0-.267.217-.484.484-.484h3.032c.267 0 .484.217.484.484v9.032a.484.484 0 01-.484.484h-3.032a.484.484 0 01-.484-.484v-9.032z" fill="#E0E0E0"/><path d="M380.668 155.667h-7.333a.167.167 0 00-.167.167v4.333c0 .092.075.167.167.167h.666v.833c0 .092.075.167.167.167h.5v.833c0 .092.075.167.167.167h4.333a.167.167 0 00.167-.167v-.833h.666a.167.167 0 00.167-.167v-.833h.5a.167.167 0 00.167-.167v-4.333a.167.167 0 00-.167-.167zm-.167 4.333h-.5a.166.166 0 00-.166.167V161h-.667a.167.167 0 00-.167.167V162h-4v-.833a.166.166 0 00-.166-.167h-.5v-.833a.167.167 0 00-.167-.167h-.667v-4h1.334v1.667a.166.166 0 10.333 0V156h.333v1.667a.167.167 0 00.334 0V156h.333v1.667a.166.166 0 10.333 0V156h.334v1.667a.166.166 0 10.333 0V156h.333v1.667a.167.167 0 00.334 0V156h.333v1.667a.166.166 0 10.333 0V156h.334v1.667a.166.166 0 10.333 0V156h1.333v4z" fill="#666"/><path d="M381.5 154h-9a.5.5 0 00-.5.5v9a.5.5 0 00.5.5h9a.5.5 0 00.5-.5v-9a.5.5 0 00-.5-.5zm.167 9.5a.167.167 0 01-.167.167h-9a.167.167 0 01-.167-.167v-9c0-.092.075-.167.167-.167h9c.092 0 .167.075.167.167v9zm-.999 5.167h-7.333a.167.167 0 00-.167.167v4.333c0 .092.075.167.167.167h.666v.833c0 .092.075.167.167.167h.5v.833c0 .092.075.167.167.167h4.333a.167.167 0 00.167-.167v-.833h.666a.167.167 0 00.167-.167v-.833h.5a.167.167 0 00.167-.167v-4.333a.167.167 0 00-.167-.167zm-.167 4.333h-.5a.166.166 0 00-.166.167V174h-.667a.167.167 0 00-.167.167V175h-4v-.833a.166.166 0 00-.166-.167h-.5v-.833a.167.167 0 00-.167-.167h-.667v-4h1.334v1.667a.166.166 0 10.333 0V169h.333v1.667a.167.167 0 00.334 0V169h.333v1.667a.166.166 0 10.333 0V169h.334v1.667a.166.166 0 10.333 0V169h.333v1.667a.167.167 0 00.334 0V169h.333v1.667a.166.166 0 10.333 0V169h.334v1.667a.166.166 0 10.333 0V169h1.333v4z" fill="#666"/><path d="M381.5 167h-9a.5.5 0 00-.5.5v9a.5.5 0 00.5.5h9a.5.5 0 00.5-.5v-9a.5.5 0 00-.5-.5zm.167 9.5a.167.167 0 01-.167.167h-9a.167.167 0 01-.167-.167v-9c0-.092.075-.167.167-.167h9c.092 0 .167.075.167.167v9z" fill="#666"/><path d="M151.783 153.982l.001-.001v-2.022c0-.472.134-.898.406-1.207.269-.307.677-.496 1.221-.496 1.088 0 1.74.756 1.74 1.703v9.418c0 .85-.143 1.641-.33 2.316-.518 1.885-.804 3.18-.885 4.908a11.7 11.7 0 00.069 1.917l.003.016c.062.553-.226 1.097-.768 1.392-.878.484-2.507 1.074-5.205 1.074-2.857 0-4.406-.721-5.162-1.26-.396-.282-.627-.703-.627-1.148v-.009c-.064-.827-.126-1.21-.253-1.625-.44-1.465-.297-1.491-1.585-3.258-.966-1.324-1.359-4.197-2.088-5.466a.815.815 0 00-.084-.118l-3.78-4.438c-.57-.689-.747-1.645.311-2.52.981-.812 1.928-.208 2.375.17l2.79 2.664c.587.56 1.559.145 1.559-.666v-11.609c0-.473.193-.901.502-1.215a1.713 1.713 0 012.926 1.155v10.324l.002.001.001-.001-.003-4.255a1.714 1.714 0 013.429 0l.003 4.256v-3.186a1.714 1.714 0 113.431.002v3.183l.001.001z" fill="url(#paint3_linear)"/></g><path d="M187.602 135.944a1.75 1.75 0 011.431-2.034l7.866-1.332a1.75 1.75 0 012.015 1.424l.597 3.411a1.75 1.75 0 01-.862 1.824l-7.346 4.156a1.75 1.75 0 01-2.585-1.215l-1.116-6.234z" fill="#C4C4C4" stroke="#666" stroke-width=".5"/><defs><linearGradient id="paint1_linear" x1="143.387" y1="107.56" x2="143.358" y2="64.712" gradientUnits="userSpaceOnUse"><stop stop-color="#fff"/><stop offset="1" stop-color="#E0E1E2"/></linearGradient><linearGradient id="paint2_linear" x1="395.875" y1="69" x2="395.875" y2="202.697" gradientUnits="userSpaceOnUse"><stop stop-color="#fff"/><stop offset="1" stop-color="#EEE"/></linearGradient><linearGradient id="paint3_linear" x1="142.908" y1="141.959" x2="149.014" y2="173.643" gradientUnits="userSpaceOnUse"><stop stop-color="#FDDAC5"/><stop offset="1" stop-color="#FBBC95"/></linearGradient><filter id="filter0_d" x="49.261" y="67.087" width="389.477" height="145.7" filterUnits="userSpaceOnUse" color-interpolation-filters="sRGB"><feFlood flood-opacity="0" result="BackgroundImageFix"/><feColorMatrix in="SourceAlpha" values="0 0 0 0 0 0 0 0 0 0 0 0 0 0 0 0 0 0 127 0"/><feOffset dy="3.826"/><feGaussianBlur stdDeviation="2.87"/><feColorMatrix values="0 0 0 0 0 0 0 0 0 0 0 0 0 0 0 0 0 0 0.15 0"/><feBlend in2="BackgroundImageFix" result="effect1_dropShadow"/><feBlend in="SourceGraphic" in2="effect1_dropShadow" result="shape"/></filter><filter id="filter1_d" x="137.672" y="137.544" width="10.334" height="9.769" filterUnits="userSpaceOnUse" color-interpolation-filters="sRGB"><feFlood flood-opacity="0" result="BackgroundImageFix"/><feColorMatrix in="SourceAlpha" values="0 0 0 0 0 0 0 0 0 0 0 0 0 0 0 0 0 0 127 0"/><feOffset dx="-.888" dy=".161"/><feGaussianBlur stdDeviation=".161"/><feColorMatrix values="0 0 0 0 0 0 0 0 0 0 0 0 0 0 0 0 0 0 0.25 0"/><feBlend in2="BackgroundImageFix" result="effect1_dropShadow"/><feBlend in="SourceGraphic" in2="effect1_dropShadow" result="shape"/></filter><radialGradient id="paint0_radial" cx="0" cy="0" r="1" gradientUnits="userSpaceOnUse" gradientTransform="matrix(108.10397 -6.66116 28.75987 466.74377 143.376 113.373)"><stop stop-color="#fff"/><stop offset="1" stop-color="#E0E1E2"/></radialGradient></defs></svg>