<svg width="496" height="255" fill="none" xmlns="http://www.w3.org/2000/svg"><path d="M443.872 93.974l-45.355 18.055 40.141-25.246c-6.524-8.565-13.853-16.677-21.917-24.258l-196.698 41.122L397.717 46.64a226.922 226.922 0 00-25.801-16.54L72.195 70.705C40.372 104.176 23.025 145.753 23 188.61h451.162c-.018-33.237-10.467-65.882-30.29-94.635zm-97.987-74.881C315.144 6.49 281.383-.04 247.181 0 177.571 0 115.337 26.532 74 68.22c70.785-13.038 194.027-35.605 271.885-49.127z" fill="#D7F2AA"/><ellipse rx="244.862" ry="60.77" transform="rotate(3.049 -3281.352 4741.802) skewX(.123)" fill="#B6CD91"/><path d="M363.699 241.549l-.698-.013a162.323 162.323 0 012.48-23.179c3.022-16.393 8.046-27.159 14.934-32l.401.573c-16.09 11.306-17.109 54.187-17.117 54.619zm8.734-.166l-.698-.014c.015-.774.451-19.027 7.631-24.072l.402.572c-6.891 4.842-7.331 23.328-7.335 23.514z" fill="#666"/><path d="M384.791 186.994a3.496 3.496 0 01-3.494-3.497 3.496 3.496 0 013.494-3.497 3.496 3.496 0 013.494 3.497 3.496 3.496 0 01-3.494 3.497zm-1.73 30.072a3.496 3.496 0 01-3.494-3.497 3.496 3.496 0 013.494-3.497 3.496 3.496 0 013.494 3.497 3.496 3.496 0 01-3.494 3.497z" fill="#FDFF8C"/><path d="M370.805 189.09c.657 4.197-1.055 7.951-1.055 7.951s-2.776-3.051-3.432-7.248c-.657-4.198 1.054-7.952 1.054-7.952s2.776 3.051 3.433 7.249zm11.421 10.194c-4.016 1.378-8.008.346-8.008.346s2.519-3.268 6.534-4.646c4.016-1.379 8.008-.346 8.008-.346s-2.519 3.267-6.534 4.646zm.128 26.632a10.867 10.867 0 01-5.613.242 9.909 9.909 0 0110.193-3.499 10.882 10.882 0 01-4.58 3.257zM124.06 195.549l.699-.013a162.323 162.323 0 00-2.48-23.179c-3.022-16.393-8.047-27.159-14.934-32l-.402.573c16.09 11.306 17.109 54.187 17.117 54.619zm-8.734-.166l.699-.014c-.015-.774-.452-19.027-7.632-24.072l-.401.572c6.89 4.842 7.331 23.328 7.334 23.514z" fill="#666"/><path d="M102.969 140.994a3.495 3.495 0 003.493-3.497 3.495 3.495 0 00-3.493-3.497 3.496 3.496 0 00-3.494 3.497 3.496 3.496 0 003.494 3.497zm1.73 30.072a3.496 3.496 0 003.494-3.497 3.496 3.496 0 00-3.494-3.497 3.496 3.496 0 00-3.494 3.497 3.496 3.496 0 003.494 3.497z" fill="#FDFF8C"/><path d="M116.955 143.09c-.657 4.197 1.054 7.951 1.054 7.951s2.777-3.051 3.433-7.248c.657-4.198-1.055-7.952-1.055-7.952s-2.776 3.051-3.432 7.249zm-11.421 10.194c4.015 1.378 8.008.346 8.008.346s-2.519-3.268-6.534-4.646c-4.016-1.379-8.008-.346-8.008-.346s2.518 3.267 6.534 4.646zm-.128 26.632c1.817.571 3.753.655 5.613.242a9.91 9.91 0 00-10.193-3.499 10.882 10.882 0 004.58 3.257z" fill="#666"/><path d="M165 97.57c0-5.027 3.112-9.49 7.779-10.906 15.919-4.826 27.592-4.943 43.844-.005 4.649 1.412 7.742 5.863 7.742 10.877v82.885c0 4.919-2.972 9.302-7.492 10.753-15.731 5.049-27.439 4.854-44.009-.135-4.712-1.419-7.864-5.905-7.864-10.961V97.569z" fill="url(#paint0_linear)" stroke="#666" stroke-width="4"/><circle cx="194.773" cy="138.773" r="16.773" fill="#ABCC75" stroke="#666" stroke-width="2"/><path fill="#fff" stroke="#000" stroke-width=".022" d="M196.044 129.91h4.79v.459h-4.79z"/><path fill="#fff" stroke="#000" stroke-width=".022" d="M196.044 129.91h4.79v.459h-4.79zm-6.111 12.214v-5.957h.547v5.957z"/><path fill-rule="evenodd" clip-rule="evenodd" d="M194.294 142.141l-3.789-5.042v5.064h-.583v-6.008h.583v.002l.003-.002 3.789 5.043v-5.043h.568v5.994h-.568v-.011l-.003.003z" fill="#fff"/><path fill-rule="evenodd" clip-rule="evenodd" d="M190.491 137.055l3.805 5.065.015-.011v.025h.54v-5.964h-.54v5.072l-3.806-5.066-.014.01v-.016h-.555v5.979h.555v-5.094zm.014 5.108h-.583v-6.008h.583v.002l.003-.002 3.789 5.043v-5.043h.568v5.994h-.568v-.011l-.003.003-3.789-5.042v5.064z" fill="#fff"/><path fill="#fff" stroke="#000" stroke-width=".022" d="M194.833 136.771v-5.957h.547v5.957z"/><path fill-rule="evenodd" clip-rule="evenodd" d="M191.711 144.766l-.639 1.77-1.813-5.014h-.605l.368 1.016h.001l1.804 4.978h.496l.051-.142v-.001l1.123-3.106.435 1.204.753 2.045h.486l.053-.145 2.114-5.849h-.605l-1.812 5.012-1.019-2.818-.396-1.091-.795 2.141zm-1.642-7.983h-.598v-5.979h.714v.002l.003-.002 2.256 3.259 2.257-3.259.005.004v-.004h.714v5.979h-.597v-5.155l-2.221 3.206-.135-.093-.166.115-2.232-3.225v5.152z" fill="#fff"/><path d="M192.438 135.062l-.612-.919h1.225l-.613.919z" fill="#fff"/><path fill-rule="evenodd" clip-rule="evenodd" d="M196.533 136.782l.576-1.589h2.655l.575 1.589h.637l-2.165-5.981-.022.008v-.006h-.721l-.006-.002-.001.002h-.001v.003l-2.164 5.976h.637zm3.02-2.173h-2.233l1.116-3.084 1.117 3.084z" fill="#fff"/><path fill-rule="evenodd" clip-rule="evenodd" d="M196.533 142.166l.576-1.59h2.655l.575 1.59h.637l-2.165-5.981-.022.008v-.006h-.721l-.006-.002-.001.002h-.002v.003l-2.163 5.976h.637zm1.903-5.258l1.117 3.085h-2.233l1.116-3.085z" fill="#fff"/><path fill-rule="evenodd" clip-rule="evenodd" d="M196.533 147.518l.576-1.59h2.655l.576 1.59h.636l-2.165-5.982-.022.008v-.005h-.72l-.007-.003-.001.003h-.001v.003l-2.164 5.976h.637zm1.903-5.258l1.117 3.085h-2.233l1.116-3.085z" fill="#fff"/><circle cx="177.217" cy="176.264" r="1.314" fill="#ABCC75" stroke="#666" stroke-width=".464"/><circle cx="185.874" cy="177.809" r="1.314" fill="#ABCC75" stroke="#666" stroke-width=".464"/><circle cx="194.528" cy="178.737" r="1.314" fill="#ABCC75" stroke="#666" stroke-width=".464"/><circle cx="203.182" cy="177.809" r="1.314" fill="#ABCC75" stroke="#666" stroke-width=".464"/><circle cx="211.837" cy="176.264" r="1.314" fill="#ABCC75" stroke="#666" stroke-width=".464"/><circle cx="177.217" cy="185.537" r="1.314" fill="#ABCC75" stroke="#666" stroke-width=".464"/><circle cx="171.036" cy="181.828" r="1.314" fill="#ABCC75" stroke="#666" stroke-width=".464"/><circle cx="185.872" cy="187.083" r="1.314" fill="#ABCC75" stroke="#666" stroke-width=".464"/><circle cx="194.526" cy="188.009" r="1.314" fill="#ABCC75" stroke="#666" stroke-width=".464"/><circle cx="203.18" cy="187.083" r="1.314" fill="#ABCC75" stroke="#666" stroke-width=".464"/><circle cx="211.837" cy="185.537" r="1.314" fill="#ABCC75" stroke="#666" stroke-width=".464"/><circle cx="218.018" cy="181.828" r="1.314" fill="#ABCC75" stroke="#666" stroke-width=".464"/><path d="M269 94.33c0-3.886 2.42-7.39 6.113-8.604 18.914-6.214 31.831-6.386 51.163-.006 3.681 1.214 6.089 4.713 6.089 8.589v89.262c0 3.799-2.313 7.249-5.898 8.505-18.691 6.548-31.647 6.27-51.291-.095-3.722-1.207-6.176-4.726-6.176-8.639V94.331z" fill="url(#paint1_linear)" stroke="#666" stroke-width="4"/><circle cx="283.5" cy="179.5" r="6.5" fill="#ABCC75"/><path d="M292.783 189.982l.001-.001v-2.022c0-.472.134-.898.406-1.207.269-.307.677-.496 1.221-.496 1.088 0 1.74.756 1.74 1.703v9.418c0 .85-.143 1.641-.33 2.316-.518 1.885-.804 3.18-.885 4.908a11.7 11.7 0 00.069 1.917l.003.016c.062.553-.226 1.097-.768 1.392-.878.484-2.507 1.074-5.205 1.074-2.857 0-4.406-.721-5.162-1.26-.396-.282-.627-.703-.627-1.148v-.009c-.064-.827-.126-1.21-.253-1.625-.44-1.465-.297-1.491-1.585-3.258-.966-1.324-1.359-4.197-2.088-5.466a.815.815 0 00-.084-.118l-3.78-4.438c-.57-.689-.747-1.645.311-2.52.981-.812 1.928-.208 2.375.17l2.79 2.664c.587.56 1.559.145 1.559-.666v-11.609c0-.473.193-.901.502-1.215a1.713 1.713 0 012.926 1.155v10.324l.002.001.001-.001-.003-4.255a1.714 1.714 0 013.429 0l.003 4.256v-3.186a1.714 1.714 0 113.431.002v3.183l.001.001z" fill="url(#paint2_linear)"/><path d="M307.5 205a1 1 0 00-2 0h2zM190 205v2.625h2V205h-2zm0 7.875v2.625h2v-2.625h-2zm0 2.625c0 .947.189 1.853.532 2.68l1.847-.766A4.98 4.98 0 01192 215.5h-2zm4.32 6.468a6.982 6.982 0 002.68.532v-2a4.98 4.98 0 01-1.914-.379l-.766 1.847zm2.68.532h2.875v-2H197v2zm8.625 0h5.75v-2h-5.75v2zm11.5 0h5.75v-2h-5.75v2zm11.5 0h5.75v-2h-5.75v2zm11.5 0h5.75v-2h-5.75v2zm11.5 0h5.75v-2h-5.75v2zm11.5 0h5.75v-2h-5.75v2zm11.5 0h5.75v-2h-5.75v2zm11.5 0h5.75v-2h-5.75v2zm11.5 0h2.875v-2h-2.875v2zm2.875 0c.947 0 1.853-.189 2.68-.532l-.766-1.847a4.98 4.98 0 01-1.914.379v2zm6.468-4.32a6.982 6.982 0 00.532-2.68h-2a4.98 4.98 0 01-.379 1.914l1.847.766zm.532-2.68v-2.625h-2v2.625h2zm0-7.875V205h-2v2.625h2zm.414-6.211l-.707.707.707-.707zm-7.207 5.793l5.086-5.086-1.414-1.414-5.086 5.086 1.414 1.414zm6.5-5.086l5.086 5.086 1.414-1.414-5.086-5.086-1.414 1.414zm-1.414 0a1 1 0 011.414 0l1.414-1.414a3 3 0 00-4.242 0l1.414 1.414z" fill="#fff"/><defs><linearGradient id="paint0_linear" x1="194.682" y1="81" x2="194.682" y2="196.872" gradientUnits="userSpaceOnUse"><stop stop-color="#fff"/><stop offset="1" stop-color="#E0E1E2"/></linearGradient><linearGradient id="paint1_linear" x1="300.682" y1="81" x2="300.682" y2="196.872" gradientUnits="userSpaceOnUse"><stop stop-color="#fff"/><stop offset="1" stop-color="#E0E1E2"/></linearGradient><linearGradient id="paint2_linear" x1="283.908" y1="177.959" x2="290.014" y2="209.643" gradientUnits="userSpaceOnUse"><stop stop-color="#FDDAC5"/><stop offset="1" stop-color="#FBBC95"/></linearGradient></defs></svg>