<svg width="496" height="257" fill="none" xmlns="http://www.w3.org/2000/svg"><path d="M442.872 94.874l-45.355 18.055 40.141-25.246c-6.524-8.565-13.853-16.676-21.917-24.257l-196.698 41.121 177.674-57.006A226.935 226.935 0 00370.916 31L71.195 71.606C39.372 105.077 22.025 146.653 22 189.51h451.162c-.018-33.238-10.467-65.882-30.29-94.635zm-96.748-75.781C315.383 6.49 281.622-.04 247.42 0 177.811 0 115.576 26.532 74.24 68.22c70.784-13.038 194.026-35.605 271.884-49.127z" fill="#D7F2AA"/><ellipse rx="244.862" ry="48.719" transform="rotate(3.049 -3393.59 4737.553) skewX(.123)" fill="#B6CD91"/><ellipse rx="244.862" ry="60.77" transform="rotate(3.049 -3327.11 4743.02) skewX(.123)" fill="#B6CD91"/><path d="M180.331 76.523a48.581 48.581 0 014.02-15.334 48.446 48.446 0 011.998-3.965.297.297 0 00-.331-.428.295.295 0 00-.18.13 49.253 49.253 0 00-5.481 15.12 49.513 49.513 0 00-.618 4.477c-.035.379.557.376.592 0z" fill="#666"/><path d="M187.747 57.496a3.748 3.748 0 100-7.496 3.748 3.748 0 000 7.496z" fill="#95B464"/><path d="M180.714 76.622a31.523 31.523 0 013.904-12.52.192.192 0 00-.214-.278.19.19 0 00-.117.084 31.952 31.952 0 00-3.957 12.714c-.023.246.361.244.384 0z" fill="#666"/><path d="M185.547 64.718a2.432 2.432 0 100-4.863 2.432 2.432 0 000 4.863z" fill="#95B464"/><path d="M180.003 76.433a31.504 31.504 0 01-4.622-12.273.19.19 0 00-.214-.158.193.193 0 00-.166.21A31.984 31.984 0 00179.7 76.67c.134.207.435-.03.303-.237z" fill="#666"/><path d="M175.224 64.547a2.431 2.431 0 100-4.862 2.431 2.431 0 000 4.862z" fill="#95B464"/><path d="M173 78.569V73.79a1.794 1.794 0 011.791-1.79h11.146a1.793 1.793 0 011.791 1.791v4.778a1.79 1.79 0 01-1.791 1.791h-11.146A1.794 1.794 0 01173 78.57z" fill="#E0E0E0"/><path d="M185.304 48.09h-4.776a1.791 1.791 0 01-1.792-1.792V26.791A1.795 1.795 0 01180.528 25h4.776a1.791 1.791 0 011.792 1.791v19.507a1.795 1.795 0 01-1.792 1.792z" fill="#F2F2F2"/><path d="M186.897 28.781h-7.961v1.593h7.961V28.78zm0 12.342h-7.961v1.592h7.961v-1.592z" fill="#CCC"/><path d="M197.247 48.09h-4.777a1.793 1.793 0 01-1.791-1.792V26.791A1.79 1.79 0 01192.47 25h4.777a1.793 1.793 0 011.791 1.791v19.507a1.794 1.794 0 01-1.791 1.792z" fill="#F2F2F2"/><path d="M198.839 28.781h-7.961v1.593h7.961V28.78zm0 12.342h-7.961v1.592h7.961v-1.592z" fill="#CCC"/><path d="M209.189 48.09h-4.777a1.793 1.793 0 01-1.791-1.792V26.791A1.793 1.793 0 01204.412 25h4.777a1.793 1.793 0 011.791 1.791v19.507a1.79 1.79 0 01-1.791 1.792z" fill="#F2F2F2"/><path d="M210.781 28.781h-7.961v1.593h7.961V28.78zm0 12.342h-7.961v1.592h7.961v-1.592z" fill="#CCC"/><path d="M215.568 80.09h-4.777A1.793 1.793 0 01209 78.298V58.791A1.794 1.794 0 01210.791 57h4.777a1.793 1.793 0 011.791 1.791v19.507a1.79 1.79 0 01-1.791 1.792z" fill="#F2F2F2"/><path d="M217.151 61.028h-7.962v1.593h7.962v-1.593zm0 12.342h-7.962v1.591h7.962V73.37z" fill="#CCC"/><path d="M227.501 80.336h-4.777a1.793 1.793 0 01-1.791-1.792V59.038a1.79 1.79 0 011.791-1.792h4.777a1.793 1.793 0 011.791 1.791v19.507a1.793 1.793 0 01-1.791 1.791z" fill="#F2F2F2"/><path d="M229.091 61.028h-7.961v1.593h7.961v-1.593zm0 12.342h-7.961v1.591h7.961V73.37z" fill="#CCC"/><path d="M239.441 80.336h-4.777a1.793 1.793 0 01-1.791-1.792V59.038a1.794 1.794 0 011.791-1.792h4.777a1.793 1.793 0 011.791 1.791v19.507a1.79 1.79 0 01-1.791 1.792z" fill="#F2F2F2"/><path d="M241.032 61.028h-7.961v1.593h7.961v-1.593zm0 12.342h-7.961v1.591h7.961V73.37z" fill="#CCC"/><path d="M184.111 112.582h-4.777a1.797 1.797 0 01-1.791-1.792V91.284a1.794 1.794 0 011.791-1.792h4.777a1.793 1.793 0 011.791 1.792v19.506a1.792 1.792 0 01-1.791 1.792z" fill="#F2F2F2"/><path d="M185.702 93.274h-7.961v1.593h7.961v-1.593zm0 12.341h-7.961v1.593h7.961v-1.593z" fill="#CCC"/><path d="M196.052 112.582h-4.776a1.797 1.797 0 01-1.792-1.792V91.284a1.795 1.795 0 011.792-1.792h4.776a1.791 1.791 0 011.792 1.792v19.506a1.798 1.798 0 01-1.792 1.792z" fill="#F2F2F2"/><path d="M197.646 93.274h-7.961v1.593h7.961v-1.593zm0 12.341h-7.961v1.593h7.961v-1.593z" fill="#CCC"/><path d="M207.995 112.582h-4.777a1.792 1.792 0 01-1.791-1.792V91.284a1.79 1.79 0 011.791-1.792h4.777a1.793 1.793 0 011.791 1.792v19.506a1.797 1.797 0 01-1.791 1.792z" fill="#F2F2F2"/><path d="M209.587 93.274h-7.961v1.593h7.961v-1.593zm0 12.341h-7.961v1.593h7.961v-1.593z" fill="#CCC"/><path d="M221.131 48.09h-4.776a1.793 1.793 0 01-1.792-1.792V26.791A1.795 1.795 0 01216.355 25h4.776a1.791 1.791 0 011.792 1.791v19.507a1.795 1.795 0 01-1.792 1.792z" fill="#F2F2F2"/><path d="M222.723 28.781h-7.961v1.593h7.961V28.78zm0 12.342h-7.961v1.592h7.961v-1.592z" fill="#CCC"/><path d="M233.072 48.09h-4.777a1.793 1.793 0 01-1.791-1.792V26.791A1.79 1.79 0 01228.295 25h4.777a1.793 1.793 0 011.791 1.791v19.507a1.79 1.79 0 01-1.791 1.792z" fill="#F2F2F2"/><path d="M234.663 28.781h-7.961v1.593h7.961V28.78zm0 12.342h-7.961v1.592h7.961v-1.592z" fill="#CCC"/><path d="M245.013 48.09h-4.776a1.791 1.791 0 01-1.792-1.792V26.791A1.795 1.795 0 01240.237 25h4.776a1.791 1.791 0 011.792 1.791v19.507a1.795 1.795 0 01-1.792 1.792z" fill="#F2F2F2"/><path d="M246.607 28.781h-7.961v1.593h7.961V28.78zm0 12.342h-7.961v1.592h7.961v-1.592z" fill="#CCC"/><path d="M256.957 48.09h-4.777a1.793 1.793 0 01-1.791-1.792V26.791A1.79 1.79 0 01252.18 25h4.777a1.793 1.793 0 011.791 1.791v19.507a1.793 1.793 0 01-1.791 1.791z" fill="#F2F2F2"/><path d="M258.548 28.781h-7.961v1.593h7.961V28.78zm0 12.342h-7.961v1.592h7.961v-1.592z" fill="#CCC"/><path d="M274.845 48.687H161.398a.397.397 0 110-.796h113.447a.397.397 0 01.281.68.397.397 0 01-.281.116zm0 32.246H161.398a.397.397 0 110-.796h113.447a.397.397 0 01.281.68.397.397 0 01-.281.116zm0 32.246H161.398a.394.394 0 01-.281-.117.396.396 0 010-.563.397.397 0 01.281-.116h113.447a.399.399 0 01.398.398.396.396 0 01-.117.281.396.396 0 01-.281.117z" fill="#666"/><path d="M191.498 156.973a48.613 48.613 0 014.021-15.334 48.52 48.52 0 011.998-3.965.298.298 0 00-.112-.396.294.294 0 00-.399.097 49.26 49.26 0 00-5.481 15.121 49.508 49.508 0 00-.618 4.477c-.035.379.557.377.591 0z" fill="#3F3D56"/><path d="M198.95 138.623a3.748 3.748 0 10-.001-7.495 3.748 3.748 0 00.001 7.495z" fill="#95B464"/><path d="M191.882 157.072a31.53 31.53 0 013.904-12.52.192.192 0 00-.331-.194 31.952 31.952 0 00-3.957 12.714c-.023.246.361.244.384 0z" fill="#3F3D56"/><path d="M196.715 145.168a2.432 2.432 0 100-4.864 2.432 2.432 0 000 4.864z" fill="#95B464"/><path d="M191.397 156.843a31.563 31.563 0 01-4.061-9.448 31.861 31.861 0 01-.56-2.826.191.191 0 00-.34-.087.197.197 0 00-.041.138 31.961 31.961 0 004.7 12.459c.133.208.435-.03.302-.236z" fill="#3F3D56"/><path d="M186.392 144.998a2.431 2.431 0 100-4.863 2.431 2.431 0 000 4.863z" fill="#95B464"/><path d="M183.934 158.994v-4.777a1.79 1.79 0 011.791-1.791h11.146a1.792 1.792 0 011.791 1.791v4.777a1.8 1.8 0 01-.525 1.267 1.8 1.8 0 01-1.266.525h-11.146a1.792 1.792 0 01-1.791-1.792z" fill="#E0E0E0"/><path d="M264.109 186.674c0-3.078-11.584-5.573-25.874-5.573s-25.874 2.495-25.874 5.573c0 1.973 4.763 3.705 11.942 4.695v30.537a2.587 2.587 0 005.175 0v-29.987c2.735.212 5.683.328 8.757.328s6.022-.116 8.757-.328v29.987a2.587 2.587 0 005.175 0v-30.537c7.179-.99 11.942-2.722 11.942-4.695z" fill="#666"/><path d="M258.635 219.446h4.88l2.321-18.825h-7.202l.001 18.825z" fill="#FFB774"/><path d="M273.424 224.018h-15.338v-5.926l9.412-.001a5.928 5.928 0 015.926 5.927z" fill="#000"/><path d="M266.724 216.818l4.656-1.462-3.42-18.657-6.872 2.157 5.636 17.962z" fill="#FFB774"/><path d="M281.742 216.807l-14.634 4.592-1.774-5.654 8.98-2.818a5.923 5.923 0 017.428 3.88zm-18.258-8.709l-8.927-23.437c-2.003.471-18.799 4.188-24.424-1.802-1.928-2.054-2.304-5.028-1.118-8.841l3.283-4.126.102.005c1.241.065 30.426 1.701 32.426 10.505a7422.12 7422.12 0 015.672 25.325 1.798 1.798 0 01-1.12 2.064l-3.591 1.346a1.794 1.794 0 01-2.303-1.039z" fill="#000"/><path d="M258.31 210.885l-8.928-23.437c-2.003.471-18.799 4.187-24.424-1.802-1.928-2.053-2.304-5.028-1.118-8.841l3.283-4.126.102.005c1.242.065 30.426 1.701 32.427 10.505a7573.998 7573.998 0 015.671 25.326 1.794 1.794 0 01-1.12 2.063l-3.59 1.346a1.796 1.796 0 01-2.303-1.039z" fill="#000"/><path d="M270.349 154.758a4.365 4.365 0 00-.352.558l-19.632 2.069-2.826-3.875-6.405 3.501 5.55 9.403 24.078-6.139a4.182 4.182 0 006.522-.88 4.176 4.176 0 00-2.423-6.12 4.178 4.178 0 00-4.512 1.483z" fill="#FFB774"/><path d="M223.713 178.042a1.793 1.793 0 01-.724-1.731c1.108-7.302-.167-17.763-1.431-25.252a9.872 9.872 0 0110.97-11.45c1.331.175 2.649.435 3.946.777a9.785 9.785 0 015.406 3.574 9.785 9.785 0 011.991 6.167c-.189 7.227 1.278 16.245 1.918 19.786a1.793 1.793 0 01-.874 1.876 1.76 1.76 0 01-.69.218c-7.089.724-14.733 4.181-18.659 6.177a1.76 1.76 0 01-1.853-.142z" fill="#D7F2AA"/><path d="M242.848 159.207a1.775 1.775 0 01-.984-.954l-3.954-9.133a4.59 4.59 0 01-.057-3.505 4.577 4.577 0 018.459-.132l3.954 9.133a1.794 1.794 0 01-.933 2.356l-5.114 2.214a1.787 1.787 0 01-1.371.021z" fill="#D7F2AA"/><path d="M251.64 153.962a4.365 4.365 0 00-.352.558l-19.632 2.069-2.826-3.875-6.405 3.501 5.551 9.403 24.077-6.139a4.182 4.182 0 006.522-.88 4.176 4.176 0 00-2.422-6.119 4.181 4.181 0 00-4.513 1.482z" fill="#FFB774"/><path d="M224.14 159.605a1.778 1.778 0 01-.984-.954l-3.954-9.134a4.586 4.586 0 01-.057-3.505 4.572 4.572 0 014.186-2.894 4.573 4.573 0 014.273 2.762l3.954 9.134a1.792 1.792 0 01-.933 2.355l-5.114 2.214a1.769 1.769 0 01-1.371.022z" fill="#D7F2AA"/><path d="M231.777 136.555c5.399 0 9.776-4.377 9.776-9.777 0-5.4-4.377-9.778-9.776-9.778-5.4 0-9.777 4.378-9.777 9.778s4.377 9.777 9.777 9.777z" fill="#FFB774"/><path d="M224.812 133.434a.84.84 0 01.094-.742.839.839 0 01.644-.38c.265.014.524.082.762.2.238.117.45.281.622.483.354.408.766.761 1.223 1.049.473.239 1.114.205 1.384-.25.253-.427.079-.998-.074-1.494a14.713 14.713 0 01-.649-3.889c-.044-1.473.164-3.011.979-4.16 1.053-1.483 2.935-2.045 4.716-2.005 1.78.041 3.533.591 5.297.939.609.119 1.324.181 1.732-.291.433-.502.274-1.314.09-1.992-.478-1.759-.986-3.577-2.096-4.997a7.521 7.521 0 00-4.801-2.703 11.522 11.522 0 00-5.359.608 14.371 14.371 0 00-7.039 4.904 11.64 11.64 0 00-2.22 8.599 10.615 10.615 0 003.935 6.71l.76-.589z" fill="#000"/><path d="M279.833 157.612h-31.447a1.394 1.394 0 000 2.787h31.447a1.393 1.393 0 000-2.787z" fill="#E0E0E0"/><path d="M300.931 160.399h-35.428a2.59 2.59 0 01-2.587-2.588v-19.507a2.59 2.59 0 012.587-2.587h35.428a2.59 2.59 0 012.587 2.587v19.507a2.592 2.592 0 01-2.587 2.588z" fill="#E0E0E0"/><path d="M283.216 150.447a2.388 2.388 0 10.002-4.776 2.388 2.388 0 00-.002 4.776z" fill="#fff"/><path d="M332.413 160.001H173.986a2.59 2.59 0 00-2.588 2.588 2.587 2.587 0 002.588 2.587h4.577v56.331a2.59 2.59 0 002.588 2.588 2.587 2.587 0 002.587-2.588v-51.358l29.007 52.58a2.588 2.588 0 004.482-2.588l-30.323-54.965h138.543v.034l-30.304 54.931a2.593 2.593 0 00.947 3.535 2.588 2.588 0 003.535-.947l25.822-46.808v45.586a2.59 2.59 0 002.588 2.588 2.587 2.587 0 002.587-2.588v-54.966l.753-1.365h1.038a2.585 2.585 0 002.588-2.587 2.588 2.588 0 00-2.588-2.588z" fill="#666"/><path d="M313.115 139.722a4.345 4.345 0 00-1.147 3.176.34.34 0 01-.298.356l-.52.065a.343.343 0 01-.384-.32 5.566 5.566 0 014.962-5.856.338.338 0 01.26.082.35.35 0 01.119.245l.021.523a.34.34 0 01-.301.353 4.338 4.338 0 00-2.712 1.376z" fill="#D7F2AA"/><path d="M313.608 140.176a4.339 4.339 0 012.658-1.369.331.331 0 01.14.012.335.335 0 01.243.313l.016.391a.345.345 0 01-.08.234.336.336 0 01-.215.118 3.285 3.285 0 00-2.841 3.35.342.342 0 01-.298.351l-.388.048a.343.343 0 01-.349-.188.35.35 0 01-.034-.135 4.335 4.335 0 011.148-3.125z" fill="#D7F2AA"/><path d="M315.529 141.951a2.405 2.405 0 00-.638 1.627.341.341 0 01-.3.345l-.187.023a.34.34 0 01-.384-.339 3.285 3.285 0 012.776-3.267.343.343 0 01.354.187c.021.043.032.09.034.138l.008.189a.343.343 0 01-.292.352 2.405 2.405 0 00-1.371.745zm14.355-2.229a4.345 4.345 0 011.147 3.176.336.336 0 00.079.237.336.336 0 00.219.119l.52.065a.343.343 0 00.384-.32 5.566 5.566 0 00-4.962-5.856.338.338 0 00-.26.082.35.35 0 00-.119.245l-.021.523a.342.342 0 00.301.353 4.338 4.338 0 012.712 1.376z" fill="#D7F2AA"/><path d="M329.39 140.177a4.339 4.339 0 00-2.658-1.369.331.331 0 00-.14.012.342.342 0 00-.243.313l-.016.391a.341.341 0 00.295.352 3.285 3.285 0 012.841 3.35.342.342 0 00.298.351l.388.048a.343.343 0 00.349-.188.35.35 0 00.034-.135 4.335 4.335 0 00-1.148-3.125z" fill="#D7F2AA"/><path d="M327.469 141.951c.409.443.637 1.024.638 1.627a.346.346 0 00.3.345l.187.023a.34.34 0 00.384-.339 3.285 3.285 0 00-2.776-3.267.324.324 0 00-.142.01.349.349 0 00-.212.177.346.346 0 00-.034.138l-.008.189a.343.343 0 00.292.352c.527.089 1.01.351 1.371.745z" fill="#D7F2AA"/><path d="M317.117 143.804a.78.78 0 01.523-.741c1.531-.525 2.781-.792 4.035-.796 1.254-.004 2.522.255 4.086.795a.78.78 0 01.521.74v13.904c0 .327-.2.621-.504.733-1.507.553-2.747.815-4.003.808-1.257-.007-2.538-.284-4.129-.82a.783.783 0 01-.529-.744v-13.879z" fill="url(#paint0_linear)" stroke="#666" stroke-width=".268"/><circle cx="321.699" cy="150.723" r="2.579" fill="#ABCC75" stroke="#666" stroke-width=".134"/><path fill="#fff" stroke="#000" stroke-width=".001" d="M321.9 149.413h.715v.07h-.715z"/><path fill="#fff" stroke="#000" stroke-width=".001" d="M321.9 149.413h.715v.07h-.715zm-.91 1.82v-.889h.083v.889z"/><path fill-rule="evenodd" clip-rule="evenodd" d="M321.64 151.235l-.564-.751v.754h-.087v-.894h.087l.564.75v-.75h.085v.892h-.085v-.002.001z" fill="#fff"/><path fill-rule="evenodd" clip-rule="evenodd" d="M321.074 150.478l.566.754.003-.002v.004h.08v-.888h-.08v.755l-.567-.754-.002.001v-.002h-.083v.89h.083v-.758zm.002.76h-.087v-.894h.087l.564.75v-.75h.085v.892h-.085v-.002.001l-.564-.751v.754z" fill="#fff"/><path fill="#fff" stroke="#000" stroke-width=".001" d="M321.721 150.436v-.889h.083v.889z"/><path fill-rule="evenodd" clip-rule="evenodd" d="M321.257 151.625l-.095.264-.27-.746h-.09l.054.151h.001l.268.741h.074l.008-.021v-.001l.167-.462.065.179.112.305h.072l.008-.022.314-.87h-.09l-.269.746-.152-.42-.059-.162-.118.318zm-.245-1.189h-.089v-.89h.107l.336.485.335-.485h.108v.89h-.089v-.767l-.331.477-.02-.014-.025.017-.332-.48v.767z" fill="#fff"/><path d="M321.365 150.181l-.091-.137h.182l-.091.137z" fill="#fff"/><path fill-rule="evenodd" clip-rule="evenodd" d="M321.975 150.438l.086-.237h.395l.086.237h.095l-.323-.891-.003.001v-.001h-.109v.001l-.322.89h.095zm.283-.783l.166.459h-.332l.166-.459z" fill="#fff"/><path fill-rule="evenodd" clip-rule="evenodd" d="M321.974 151.239l.086-.238h.395l.086.238h.095l-.323-.891-.003.001v-.001h-.109l-.322.891h.095zm.283-.784l.166.46h-.332l.166-.46z" fill="#fff"/><path fill-rule="evenodd" clip-rule="evenodd" d="M321.973 152.035l.085-.237h.396l.085.237h.095l-.322-.89-.004.001v-.001h-.108l-.322.89h.095zm.283-.783l.166.459h-.332l.166-.459z" fill="#fff"/><circle cx="319.101" cy="156.313" r=".215" fill="#ABCC75" stroke="#666" stroke-width=".031"/><circle cx="320.389" cy="156.543" r=".215" fill="#ABCC75" stroke="#666" stroke-width=".031"/><circle cx="321.677" cy="156.681" r=".215" fill="#ABCC75" stroke="#666" stroke-width=".031"/><circle cx="322.966" cy="156.543" r=".215" fill="#ABCC75" stroke="#666" stroke-width=".031"/><circle cx="324.254" cy="156.313" r=".215" fill="#ABCC75" stroke="#666" stroke-width=".031"/><circle cx="319.101" cy="157.694" r=".215" fill="#ABCC75" stroke="#666" stroke-width=".031"/><circle cx="318.18" cy="157.143" r=".215" fill="#ABCC75" stroke="#666" stroke-width=".031"/><circle cx="320.389" cy="157.924" r=".215" fill="#ABCC75" stroke="#666" stroke-width=".031"/><circle cx="321.677" cy="158.063" r=".215" fill="#ABCC75" stroke="#666" stroke-width=".031"/><circle cx="322.966" cy="157.924" r=".215" fill="#ABCC75" stroke="#666" stroke-width=".031"/><circle cx="324.253" cy="157.694" r=".215" fill="#ABCC75" stroke="#666" stroke-width=".031"/><circle cx="325.172" cy="157.142" r=".215" fill="#ABCC75" stroke="#666" stroke-width=".031"/><defs><linearGradient id="paint0_linear" x1="321.7" y1="142.133" x2="321.7" y2="159.381" gradientUnits="userSpaceOnUse"><stop stop-color="#fff"/><stop offset="1" stop-color="#E0E1E2"/></linearGradient></defs></svg>