<svg width="100" height="100" fill="none" xmlns="http://www.w3.org/2000/svg"><g clip-path="url(#clip0_252_54552)"><path d="M59.797 65.538l2.457 2.459 2.873 2.858 1.107 1.115 5.733-5.737-6.428-6.438-5.742 5.743z" fill="#3F4753"/><path d="M77.812 66.195l19.782 19.781a8.159 8.159 0 012.406 5.81c0 2.27-.918 4.327-2.406 5.817A8.192 8.192 0 0191.786 100a8.187 8.187 0 01-5.81-2.402l-19.78-19.783 11.616-11.62z" fill="#F2956A"/><path d="M75.082 68.93l1.608-1.611 19.783 19.784a6.573 6.573 0 011.935 4.682 6.61 6.61 0 01-1.935 4.692 1.164 1.164 0 01-.806.328 1.15 1.15 0 01-.809-.331 1.14 1.14 0 010-1.605 4.333 4.333 0 001.276-3.087 4.3 4.3 0 00-1.27-3.07L75.083 68.928z" fill="#FCE3CD"/><path d="M66.195 77.815l11.618-11.621-.867-.869a2.851 2.851 0 00-2.032-.844c-.8 0-1.517.318-2.035.84l-7.556 7.56a2.85 2.85 0 00-.842 2.032c0 .79.323 1.516.842 2.027l.872.875zM0 37.141C0 16.632 16.63.001 37.143.001c20.515 0 37.143 16.632 37.143 37.14 0 20.515-16.63 37.144-37.143 37.149C16.629 74.285 0 57.654 0 37.14z" fill="#D62F0E"/><path d="M37.144 70.265c18.288 0 33.122-14.828 33.122-33.124 0-18.286-14.833-33.119-33.122-33.119-18.29 0-33.123 14.832-33.123 33.119 0 18.296 14.832 33.124 33.123 33.124z" fill="#F2956A"/><path d="M37.141 67.614c16.826 0 30.47-13.639 30.47-30.473 0-16.821-13.645-30.469-30.47-30.469S6.67 20.32 6.67 37.142c0 16.832 13.643 30.472 30.471 30.472z" fill="#D7E7F0"/><path d="M37.942 11.675a2.7 2.7 0 00-2.392-1.197c-4.206.256-8.181 1.44-11.814 3.55a2.7 2.7 0 00-.972 3.681c.745 1.269 2.395 1.72 3.67.965a21.292 21.292 0 019.431-2.826 2.67 2.67 0 002.522-2.827 2.536 2.536 0 00-.445-1.346zm-17.251 8.834a2.762 2.762 0 00-.534-.583 2.676 2.676 0 00-3.777.392 26.606 26.606 0 00-5.468 11.716A26.584 26.584 0 0012.4 47.172a2.69 2.69 0 003.514 1.466 2.68 2.68 0 001.467-3.505 21.158 21.158 0 01-1.175-12.078 21.03 21.03 0 014.348-9.35 2.69 2.69 0 00.136-3.196z" fill="#fff"/><path d="M47.794 48.842H28.99a2.35 2.35 0 01-2.35-2.35c0-6.48 5.272-11.753 11.751-11.753 6.48 0 11.752 5.272 11.752 11.752a2.35 2.35 0 01-2.35 2.35z" fill="#899AAB"/><path d="M38.395 34.74v14.102h9.401a2.35 2.35 0 002.35-2.35c0-6.48-5.272-11.753-11.752-11.753z" fill="#3E4D62"/><path d="M38.398 37.873a6.268 6.268 0 01-6.267-6.267v-3.134a6.268 6.268 0 0112.535 0v3.134a6.268 6.268 0 01-6.267 6.267z" fill="#FFDDCE"/><path d="M38.395 22.204v15.67a6.268 6.268 0 006.267-6.268v-3.134a6.268 6.268 0 00-6.267-6.268z" fill="#FFCBBC"/></g><defs><clipPath id="clip0_252_54552"><path fill="#fff" d="M0 0h100v100H0z"/></clipPath></defs></svg>