<svg width="275" height="211" fill="none" xmlns="http://www.w3.org/2000/svg"><g filter="url(#filter0_d)"><path d="M138.92 208.348c41.929 0 75.92-33.88 75.92-75.674C214.84 90.88 180.849 57 138.92 57 96.99 57 63 90.88 63 132.674c0 41.794 33.99 75.674 75.92 75.674z" fill="#FEFFD7"/></g><path d="M175.382 108l-49.5 49.5L103 134.617" stroke="#ABCC75" stroke-opacity=".75" stroke-width="12" stroke-miterlimit="10" stroke-linecap="round" stroke-linejoin="round"/><path d="M56.558 86.99l-1.098.355a.74.74 0 01-.935-.476l-.358-1.096a1.494 1.494 0 00-1.768-1.032 1.452 1.452 0 00-1.067 1.263c-.019.195.003.391.063.578l.383 1.174a.735.735 0 01-.475.933l-1.099.355a1.49 1.49 0 00-1.032 1.762 1.45 1.45 0 001.268 1.066c.196.019.393-.002.58-.062l1.176-.38a.742.742 0 01.936.476l.357 1.096a1.495 1.495 0 001.768 1.03 1.452 1.452 0 001.067-1.261 1.447 1.447 0 00-.063-.579l-.383-1.173a.737.737 0 01.476-.933l1.177-.38a1.453 1.453 0 00.995-1.32 1.449 1.449 0 00-.096-.574 1.528 1.528 0 00-1.872-.822z" fill="#FDFF8C"/><path d="M4.671 69.953l-.548-.146a.36.36 0 01-.256-.442l.148-.547a.725.725 0 00-.446-.886.713.713 0 00-.902.487l-.157.582a.36.36 0 01-.444.256l-.548-.146a.73.73 0 00-.89.45.706.706 0 00.488.898l.583.156a.36.36 0 01.256.442l-.148.547a.725.725 0 00.448.889.713.713 0 00.902-.488l.158-.584a.36.36 0 01.443-.255l.583.155a.71.71 0 00.874-.536.74.74 0 00-.544-.832z" fill="#F98585"/><path d="M67.248 50.379l-.713-.41a.523.523 0 01-.193-.72l.412-.711a1.06 1.06 0 00-.295-1.424 1.036 1.036 0 00-1.18.04 1.037 1.037 0 00-.277.308l-.441.762a.526.526 0 01-.723.193l-.713-.41a1.067 1.067 0 00-1.425.292 1.033 1.033 0 00.346 1.452l.763.439a.525.525 0 01.194.72l-.413.711a1.06 1.06 0 00.29 1.425 1.039 1.039 0 001.456-.346l.441-.762a.527.527 0 01.723-.194l.763.44a1.04 1.04 0 001.443-.43 1.081 1.081 0 00-.458-1.375z" fill="#ABCC75"/><path d="M210.826 12.22l-1.242-.525a.865.865 0 01-.467-.472.858.858 0 01.008-.663l.528-1.239a1.734 1.734 0 00-.763-2.257 1.7 1.7 0 00-1.332-.06 1.708 1.708 0 00-.968.915l-.567 1.33a.867.867 0 01-1.138.46l-1.242-.526a1.75 1.75 0 00-2.265.766 1.684 1.684 0 00.297 1.904c.157.166.347.299.557.39l1.332.563a.867.867 0 01.466.471.859.859 0 01-.007.663l-.528 1.24a1.733 1.733 0 00.764 2.255 1.708 1.708 0 002.302-.856l.566-1.328a.863.863 0 011.138-.46l1.329.563a1.705 1.705 0 002.25-.982 1.775 1.775 0 00-1.018-2.152z" fill="#FDFF8C"/><path d="M232.308 131.773l-.687-.196a.452.452 0 01-.311-.56l.199-.691a.923.923 0 00-.555-1.14.901.901 0 00-1.154.598l-.212.734a.455.455 0 01-.561.311l-.693-.197a.921.921 0 00-.682.051.92.92 0 00-.461.505.88.88 0 00.052.702.892.892 0 00.545.448l.736.21a.452.452 0 01.311.56l-.197.686a.923.923 0 00.548 1.137.906.906 0 00.985-.28.904.904 0 00.169-.318l.21-.729a.454.454 0 01.562-.311l.736.21a.912.912 0 00.701-.092.908.908 0 00.419-.569.943.943 0 00-.66-1.069zm32.381-58.884l-.534.295a.392.392 0 01-.534-.153l-.296-.533a.797.797 0 00-1.025-.355.77.77 0 00-.425.762c.01.103.041.203.091.293l.317.571a.378.378 0 01.036.298.389.389 0 01-.188.234l-.53.293a.791.791 0 00-.356 1.018.766.766 0 00.764.425.772.772 0 00.295-.09l.571-.316a.394.394 0 01.535.153l.296.532a.796.796 0 001.02.357.77.77 0 00.425-.762.761.761 0 00-.091-.293l-.318-.571a.395.395 0 01.036-.434.389.389 0 01.117-.099l.572-.316a.771.771 0 00.367-.476.773.773 0 00-.091-.595.808.808 0 00-1.054-.238zM85.993 65.135l-.452-.104a.295.295 0 01-.224-.356l.105-.45a.595.595 0 00-.393-.716.582.582 0 00-.727.426l-.112.482a.295.295 0 01-.356.222l-.451-.103a.6.6 0 00-.72.393.581.581 0 00.427.724l.483.111a.298.298 0 01.226.24.295.295 0 01-.004.116l-.104.451a.595.595 0 00.393.717.584.584 0 00.727-.426l.112-.483a.295.295 0 01.357-.222l.483.11a.582.582 0 00.702-.465.609.609 0 00-.472-.667zm68.685-39.448l-.389.479a.41.41 0 01-.268.145.397.397 0 01-.291-.086l-.482-.389a.8.8 0 00-1.096.053.78.78 0 00-.11.876.77.77 0 00.196.241l.516.416a.405.405 0 01.145.267.382.382 0 01-.087.29l-.39.48a.794.794 0 00.053 1.093.78.78 0 001.122-.086l.417-.514a.4.4 0 01.559-.059l.481.388a.8.8 0 001.094-.052.765.765 0 00.196-.578.782.782 0 00-.282-.54l-.515-.415a.403.403 0 01-.145-.267.4.4 0 01.087-.29l.417-.514a.774.774 0 00-.148-1.112.819.819 0 00-1.08.174zM120.339 2.073l-.452-.104a.293.293 0 01-.224-.356l.104-.45a.597.597 0 00-.392-.717.584.584 0 00-.727.427l-.112.482a.294.294 0 01-.357.222l-.451-.103a.598.598 0 00-.719.393.589.589 0 00.214.627c.063.046.136.08.212.098l.483.11a.29.29 0 01.186.132.3.3 0 01.037.224l-.105.451a.593.593 0 00.394.717.584.584 0 00.727-.426l.112-.483a.294.294 0 01.356-.222l.484.11a.58.58 0 00.701-.465.61.61 0 00-.471-.667zM29.957 60.631l-.452-.104a.296.296 0 01-.224-.355l.105-.45a.595.595 0 00-.393-.717.584.584 0 00-.727.426l-.112.482a.296.296 0 01-.356.222l-.451-.103a.6.6 0 00-.72.394.58.58 0 00.426.724l.483.11a.296.296 0 01.223.356l-.105.451a.595.595 0 00.394.717.584.584 0 00.727-.425l.112-.484a.296.296 0 01.357-.222l.483.11a.584.584 0 00.702-.464.609.609 0 00-.472-.668zm31.63-30.968l-.51-.117a.34.34 0 01-.254-.407l.117-.504a.678.678 0 00-.44-.81.661.661 0 00-.821.482l-.127.545a.34.34 0 01-.408.254l-.505-.116a.682.682 0 00-.812.44.657.657 0 00.481.819l.547.125a.342.342 0 01.259.275.341.341 0 01-.005.132l-.118.509a.678.678 0 00.445.81.659.659 0 00.82-.481l.128-.55a.34.34 0 01.409-.255l.546.126a.66.66 0 00.793-.526.688.688 0 00-.545-.751z" fill="#E8EEFF"/><path d="M43.16 138.544a4.512 4.512 0 004.518-4.504 4.511 4.511 0 00-4.519-4.504 4.511 4.511 0 00-4.518 4.504 4.512 4.512 0 004.518 4.504z" fill="#fff"/><path d="M43.161 137.129c1.712 0 3.1-1.383 3.1-3.089a3.094 3.094 0 00-3.1-3.09 3.094 3.094 0 00-3.1 3.09 3.094 3.094 0 003.1 3.089z" stroke="#E8EEFF" stroke-width="4.606"/><path d="M193.644 66.05c.513 0 .93-.415.93-.927a.929.929 0 00-.93-.927.928.928 0 00-.93.927c0 .512.416.927.93.927z" stroke="#E8EEFF" stroke-width="1.382"/><path d="M103.263 50.258c2.746 0 4.971-2.219 4.971-4.955s-2.225-4.954-4.971-4.954c-2.745 0-4.97 2.218-4.97 4.954 0 2.736 2.225 4.955 4.97 4.955z" fill="#fff"/><path d="M103.263 49.126a3.829 3.829 0 003.835-3.823 3.829 3.829 0 00-3.835-3.822 3.83 3.83 0 00-3.835 3.822 3.83 3.83 0 003.835 3.823z" stroke="#F98585" stroke-width="3.685"/><path d="M265.949 107.014c2.745 0 4.971-2.218 4.971-4.955 0-2.736-2.226-4.954-4.971-4.954s-4.97 2.218-4.97 4.954a4.962 4.962 0 004.97 4.955z" fill="#fff"/><path d="M265.948 105.882a3.83 3.83 0 003.836-3.823 3.83 3.83 0 00-3.836-3.823 3.829 3.829 0 00-3.835 3.823 3.83 3.83 0 003.835 3.823z" stroke="#229FF2" stroke-width="3.685"/><path d="M227.084 164.67a3.157 3.157 0 003.163-3.152 3.158 3.158 0 00-3.163-3.153 3.158 3.158 0 00-3.163 3.153 3.157 3.157 0 003.163 3.152z" fill="#FDFF8C"/><path d="M227.085 163.822a2.308 2.308 0 002.312-2.305 2.308 2.308 0 00-2.312-2.304 2.308 2.308 0 00-2.312 2.304 2.308 2.308 0 002.312 2.305z" fill="#FDFF8C" stroke="#FEEB72" stroke-width="2.763"/><path d="M181.894 48.456a3.158 3.158 0 003.163-3.153 3.159 3.159 0 00-3.163-3.153 3.159 3.159 0 00-3.164 3.153 3.159 3.159 0 003.164 3.153z" fill="#FDFF8C"/><path d="M181.894 47.607a2.308 2.308 0 002.311-2.304A2.308 2.308 0 00181.894 43a2.308 2.308 0 00-2.312 2.304 2.308 2.308 0 002.312 2.304z" fill="#FDFF8C" stroke="#FEEB72" stroke-width="2.763"/><path d="M263.12 139.591l4.871-6.426 3.166 7.409-8.037-.983z" stroke="#F98585" stroke-width="3.685" stroke-miterlimit="10" stroke-linecap="round"/><path d="M223.702 88.069l4.956-4.135 1.126 6.34-6.082-2.206z" stroke="#ABCC75" stroke-width="3.224" stroke-miterlimit="10" stroke-linecap="round"/><path d="M212.902 84.364l.265-2.98 2.461 1.713-2.726 1.267z" stroke="#E8EDFC" stroke-width="1.382" stroke-miterlimit="10" stroke-linecap="round"/><defs><filter id="filter0_d" x="61" y="51" width="159.84" height="159.348" filterUnits="userSpaceOnUse" color-interpolation-filters="sRGB"><feFlood flood-opacity="0" result="BackgroundImageFix"/><feColorMatrix in="SourceAlpha" values="0 0 0 0 0 0 0 0 0 0 0 0 0 0 0 0 0 0 127 0"/><feOffset dx="2" dy="-2"/><feGaussianBlur stdDeviation="2"/><feColorMatrix values="0 0 0 0 0 0 0 0 0 0 0 0 0 0 0 0 0 0 0.1 0"/><feBlend in2="BackgroundImageFix" result="effect1_dropShadow"/><feBlend in="SourceGraphic" in2="effect1_dropShadow" result="shape"/></filter></defs></svg>