<svg width="12" height="17" fill="none" xmlns="http://www.w3.org/2000/svg"><path fill-rule="evenodd" clip-rule="evenodd" d="M2.568 4.586c-.59 0-1.068.478-1.068 1.068v6.519c0 .59.478 1.068 1.068 1.068H9.84c.59 0 1.067-.478 1.067-1.068v-6.52c0-.59-.478-1.067-1.067-1.067H2.568zM6.202 7.46a.73.73 0 00-.73.73v1.45a.73.73 0 001.46 0V8.19a.73.73 0 00-.73-.73z" fill="#fff"/><path d="M8.815 6.349V3.665a2.598 2.598 0 10-5.197.02L3.64 6.35h5.176z" stroke="#fff" stroke-width=".801"/><rect x=".473" y="14.367" width="11.459" height="2.531" rx="1.265" fill="#fff"/><path d="M2.458 15.68l-.316-.094.048-.157.316.117-.01-.36h.16l-.01.365.31-.115.048.159-.32.095.206.283-.13.098-.194-.3-.188.293-.13-.095.21-.289zm1.451 0l-.315-.094.048-.157.315.117-.01-.36h.16l-.01.365.31-.115.048.159-.32.095.207.283-.13.098-.194-.3-.188.293-.13-.095.21-.289zm1.452 0l-.315-.094.048-.157.315.117-.01-.36h.16l-.01.365.31-.115.048.159-.32.095.206.283-.13.098-.193-.3-.188.293-.131-.095.21-.289zm1.452 0l-.316-.094.048-.157.316.117-.01-.36h.16l-.01.365.31-.115.048.159-.32.095.206.283-.13.098-.194-.3-.188.293-.13-.095.21-.289zm1.451 0l-.315-.094.048-.157.315.117-.009-.36h.16l-.01.365.31-.115.048.159-.321.095.207.283-.13.098-.194-.3-.188.293-.13-.095.21-.289zm1.452 0l-.315-.094.048-.157.315.117-.01-.36h.16l-.01.365.31-.115.048.159-.32.095.207.283-.13.098-.194-.3-.188.293-.13-.095.21-.289z" fill="#333"/></svg>