<svg width="100" height="100" viewBox="0 0 100 100" fill="none" xmlns="http://www.w3.org/2000/svg">
<g clip-path="url(#clip0_252_54552)">
<path d="M59.7969 65.5381L62.2543 67.9965L65.1273 70.8545L66.2344 71.9696L71.9668 66.233L65.5393 59.7955L59.7969 65.5381Z" fill="#3F4753"/>
<path d="M77.8123 66.1949L97.5943 85.976C99.0824 87.46 100.006 89.5199 99.9998 91.7856C99.9998 94.0551 99.0822 96.1131 97.5943 97.6031C96.1104 99.0852 94.0553 99.9996 91.7857 99.9996C89.5172 99.9996 87.4643 99.0852 85.9762 97.5981L66.1953 77.8151L77.8123 66.1949Z" fill="#F2956A"/>
<path d="M75.082 68.9292L76.6895 67.3186L96.4734 87.1026C97.7225 88.3526 98.4094 90.0151 98.4084 91.7846C98.4084 93.559 97.7193 95.2247 96.4734 96.4766C96.2459 96.6952 95.9545 96.8051 95.6674 96.8051C95.3738 96.8051 95.0844 96.6952 94.8584 96.4737C94.418 96.0272 94.418 95.3122 94.8584 94.8692C95.6834 94.0471 96.1344 92.9461 96.1344 91.7817C96.1373 90.6221 95.6838 89.5292 94.8645 88.7112L75.082 68.9292Z" fill="#FCE3CD"/>
<path d="M66.1949 77.815L77.8129 66.1939L76.9465 65.3254C76.4234 64.8004 75.7084 64.4814 74.9135 64.4814C74.1135 64.4814 73.3965 64.799 72.8785 65.3215L65.3234 72.8805C64.8045 73.3955 64.4805 74.1125 64.4805 74.9135C64.4805 75.7025 64.8039 76.4285 65.3234 76.9404L66.1949 77.815Z" fill="#D62F0E"/>
<path d="M0 37.141C0 16.6321 16.6295 0.000610352 37.1426 0.000610352C57.6576 0.000610352 74.2861 16.633 74.2861 37.141C74.2861 57.6561 57.6557 74.2846 37.1426 74.2895C16.6295 74.2846 0 57.6555 0 37.141Z" fill="#D62F0E"/>
<path d="M37.1441 70.2651C55.4322 70.2651 70.2656 55.4371 70.2656 37.1406C70.2656 18.8547 55.4326 4.02209 37.1441 4.02209C18.8531 4.02249 4.02148 18.8541 4.02148 37.141C4.02148 55.4371 18.8531 70.2651 37.1441 70.2651Z" fill="#F2956A"/>
<path d="M37.1414 67.6141C53.967 67.6141 67.6113 53.9751 67.6113 37.1411C67.6113 20.3196 53.9664 6.67212 37.1414 6.67212C20.3164 6.67212 6.66992 20.3196 6.66992 37.1411C6.66992 53.9741 20.3129 67.6141 37.1414 67.6141Z" fill="#D7E7F0"/>
<path d="M37.9422 11.6746C37.4232 10.9047 36.5312 10.4226 35.5496 10.4785C31.3435 10.734 27.3685 11.9185 23.7361 14.0275C22.4572 14.7756 22.0185 16.424 22.7637 17.709C23.5086 18.9779 25.1592 19.4295 26.4342 18.6744C29.3316 17.0029 32.5031 16.0533 35.8652 15.8484C37.3422 15.7715 38.4783 14.4975 38.3867 13.0215C38.3697 12.51 38.1982 12.05 37.9422 11.6746Z" fill="white"/>
<path d="M20.6912 20.5086C20.5483 20.2941 20.3617 20.0951 20.1572 19.9256C19.0037 18.982 17.3123 19.1656 16.3797 20.3182C13.6348 23.6881 11.7457 27.7313 10.9117 32.0342C9.9252 37.1447 10.4412 42.3772 12.4008 47.1717C12.9719 48.5537 14.5438 49.2027 15.9149 48.6377C17.2899 48.0807 17.9449 46.5147 17.3818 45.1326C15.8193 41.3092 15.4139 37.1336 16.2074 33.0547C16.8565 29.6197 18.3654 26.3947 20.5549 23.7053C21.3162 22.7689 21.3363 21.4551 20.6912 20.5086Z" fill="white"/>
<path d="M47.7938 48.8415H28.991C27.693 48.8415 26.6406 47.7892 26.6406 46.4912C26.6406 40.0112 31.9125 34.7394 38.3924 34.7394C44.8724 34.7394 50.1442 40.0112 50.1442 46.4912C50.1442 47.7892 49.0919 48.8415 47.7938 48.8415Z" fill="#899AAB"/>
<path d="M38.3945 34.7394V48.8415H47.796C49.094 48.8415 50.1463 47.7892 50.1463 46.4912C50.1463 40.0112 44.8745 34.7394 38.3945 34.7394Z" fill="#3E4D62"/>
<path d="M38.3985 37.8733C34.937 37.8733 32.1309 35.0671 32.1309 31.6057V28.4718C32.1309 25.0104 34.937 22.2042 38.3985 22.2042C41.8599 22.2042 44.6661 25.0104 44.6661 28.4718V31.6057C44.6661 35.0673 41.8599 37.8733 38.3985 37.8733Z" fill="#FFDDCE"/>
<path d="M38.3945 22.2042V37.8733C41.856 37.8733 44.6622 35.0671 44.6622 31.6057V28.4718C44.6622 25.0104 41.856 22.2042 38.3945 22.2042Z" fill="#FFCBBC"/>
</g>
<defs>
<clipPath id="clip0_252_54552">
<rect width="100" height="100" fill="white"/>
</clipPath>
</defs>
</svg>
