<svg width="51" height="68" viewBox="0 0 51 68" fill="none" xmlns="http://www.w3.org/2000/svg">
<g clip-path="url(#clip0_2208_33980)">
<g filter="url(#filter0_f_2208_33980)">
<ellipse cx="25.5" cy="61.625" rx="8.5" ry="4.25" fill="black" fill-opacity="0.12"/>
</g>
<mask id="path-2-outside-1_2208_33980" maskUnits="userSpaceOnUse" x="1.25" y="1.25" width="48" height="61" fill="black">
<rect fill="white" x="1.25" y="1.25" width="48" height="61"/>
<path fill-rule="evenodd" clip-rule="evenodd" d="M38.0715 42.6342C43.3343 38.7663 46.75 32.5321 46.75 25.5C46.75 13.7639 37.236 4.25 25.5 4.25C13.7639 4.25 4.25 13.7639 4.25 25.5C4.25 32.5321 7.66574 38.7664 12.9286 42.6342C16.9279 45.6478 22.5653 50.4018 23.8611 58.054C23.9984 58.8645 24.6779 59.4935 25.5 59.4935C26.3221 59.4935 27.0016 58.8645 27.1389 58.054C28.4347 50.4017 34.0721 45.6478 38.0715 42.6342Z"/>
</mask>
<path fill-rule="evenodd" clip-rule="evenodd" d="M38.0715 42.6342C43.3343 38.7663 46.75 32.5321 46.75 25.5C46.75 13.7639 37.236 4.25 25.5 4.25C13.7639 4.25 4.25 13.7639 4.25 25.5C4.25 32.5321 7.66574 38.7664 12.9286 42.6342C16.9279 45.6478 22.5653 50.4018 23.8611 58.054C23.9984 58.8645 24.6779 59.4935 25.5 59.4935C26.3221 59.4935 27.0016 58.8645 27.1389 58.054C28.4347 50.4017 34.0721 45.6478 38.0715 42.6342Z" fill="#EA352B"/>
<path d="M38.0715 42.6342L36.813 40.9219L36.8028 40.9294L36.7926 40.9371L38.0715 42.6342ZM12.9286 42.6342L14.2074 40.9371L14.1973 40.9295L14.187 40.9219L12.9286 42.6342ZM23.8611 58.054L21.766 58.4088L21.766 58.4088L23.8611 58.054ZM27.1389 58.054L29.234 58.4088L29.234 58.4088L27.1389 58.054ZM39.3299 44.3465C45.1141 40.0955 48.875 33.2368 48.875 25.5H44.625C44.625 31.8274 41.5545 37.4372 36.813 40.9219L39.3299 44.3465ZM48.875 25.5C48.875 12.5903 38.4097 2.125 25.5 2.125V6.375C36.0624 6.375 44.625 14.9376 44.625 25.5H48.875ZM25.5 2.125C12.5903 2.125 2.125 12.5903 2.125 25.5H6.375C6.375 14.9376 14.9376 6.375 25.5 6.375V2.125ZM2.125 25.5C2.125 33.2368 5.88595 40.0955 11.6701 44.3465L14.187 40.9219C9.44553 37.4372 6.375 31.8274 6.375 25.5H2.125ZM25.9563 57.6992C24.5109 49.1637 18.2365 43.9731 14.2074 40.9371L11.6498 44.3314C15.6192 47.3224 20.6197 51.6398 21.766 58.4088L25.9563 57.6992ZM25.5 57.3685C25.6458 57.3685 25.7659 57.4273 25.8385 57.4921C25.9063 57.5526 25.9439 57.6257 25.9563 57.6992L21.766 58.4088C22.0593 60.1412 23.5427 61.6185 25.5 61.6185V57.3685ZM25.0437 57.6992C25.0561 57.6257 25.0937 57.5526 25.1615 57.4921C25.2341 57.4273 25.3542 57.3685 25.5 57.3685V61.6185C27.4573 61.6185 28.9407 60.1412 29.234 58.4088L25.0437 57.6992ZM36.7926 40.9371C32.7635 43.9731 26.4891 49.1637 25.0437 57.6992L29.234 58.4088C30.3803 51.6398 35.3808 47.3224 39.3503 44.3313L36.7926 40.9371Z" fill="url(#paint0_linear_2208_33980)" mask="url(#path-2-outside-1_2208_33980)"/>
</g>
<circle cx="25.5" cy="25.5" r="8.5" fill="black" fill-opacity="0.4"/>
<defs>
<filter id="filter0_f_2208_33980" x="12.75" y="53.125" width="25.5" height="17" filterUnits="userSpaceOnUse" color-interpolation-filters="sRGB">
<feFlood flood-opacity="0" result="BackgroundImageFix"/>
<feBlend mode="normal" in="SourceGraphic" in2="BackgroundImageFix" result="shape"/>
<feGaussianBlur stdDeviation="2.125" result="effect1_foregroundBlur_2208_33980"/>
</filter>
<linearGradient id="paint0_linear_2208_33980" x1="25.5" y1="4.25" x2="25.5" y2="59.4935" gradientUnits="userSpaceOnUse">
<stop stop-color="white"/>
<stop offset="1" stop-color="white" stop-opacity="0.35"/>
</linearGradient>
<clipPath id="clip0_2208_33980">
<rect width="51" height="68" fill="white"/>
</clipPath>
</defs>
</svg>
