<svg width="18" height="21" viewBox="0 0 18 21" fill="none" xmlns="http://www.w3.org/2000/svg">
<path d="M9 0.75H13.9997C15.7947 0.75 17.2497 2.20508 17.2497 4V13.8531C17.2497 15.0604 16.5805 16.1683 15.5117 16.73L9 20.1524L2.48821 16.7299C1.41951 16.1683 0.750247 15.0605 0.750227 13.8531L0.750066 4.00005C0.750036 2.20511 2.20512 0.75 4.00007 0.75H9Z" fill="#CD6276" stroke="white" stroke-width="1.5"/>
<path d="M9.00025 10.4998H17.25V14.0276C17.25 15.2586 16.5545 16.384 15.4534 16.9345L8.99986 20.1612L2.54669 16.9345C1.44563 16.384 0.750122 15.2586 0.750151 14.0276L0.750237 10.4998H9.00025Z" fill="#59A2C9" stroke="white" stroke-width="1.5"/>
</svg>
