<svg width="32" height="36" viewBox="0 0 32 36" fill="none" xmlns="http://www.w3.org/2000/svg">
<g filter="url(#filter0_d_270_59366)">
<path d="M16.0002 1H24C25.6569 1 27 2.34315 27 4V19.2766C27 20.3911 26.3822 21.4137 25.3957 21.9322L16.0002 26.8703L6.60461 21.9322C5.61812 21.4137 5.00033 20.3911 5.00032 19.2767L5.00007 4.00006C5.00004 2.34318 6.34319 1 8.00007 1H16.0002Z" fill="#356BB5" stroke="white" stroke-width="2"/>
<path d="M16.0004 14H27.0002V19.5278C27.0002 20.6642 26.3582 21.703 25.3418 22.2111L15.9999 26.882L6.65841 22.2112C5.64204 21.703 5.00003 20.6642 5.00006 19.5278L5.00019 14H16.0004Z" fill="#4D9D2E" stroke="white" stroke-width="2"/>
</g>
<defs>
<filter id="filter0_d_270_59366" x="0" y="0" width="32" height="36" filterUnits="userSpaceOnUse" color-interpolation-filters="sRGB">
<feFlood flood-opacity="0" result="BackgroundImageFix"/>
<feColorMatrix in="SourceAlpha" type="matrix" values="0 0 0 0 0 0 0 0 0 0 0 0 0 0 0 0 0 0 127 0" result="hardAlpha"/>
<feOffset dy="4"/>
<feGaussianBlur stdDeviation="2"/>
<feComposite in2="hardAlpha" operator="out"/>
<feColorMatrix type="matrix" values="0 0 0 0 0 0 0 0 0 0 0 0 0 0 0 0 0 0 0.25 0"/>
<feBlend mode="normal" in2="BackgroundImageFix" result="effect1_dropShadow_270_59366"/>
<feBlend mode="normal" in="SourceGraphic" in2="effect1_dropShadow_270_59366" result="shape"/>
</filter>
</defs>
</svg>
