<svg width="32" height="37" viewBox="0 0 32 37" fill="none" xmlns="http://www.w3.org/2000/svg">
<g filter="url(#filter0_d_270_59360)">
<path d="M16.0002 1.82812H24C25.6569 1.82812 27 3.17127 27 4.82813V20.1048C27 21.2192 26.3822 22.2418 25.3957 22.7603L16.0002 27.6984L6.60461 22.7603C5.61812 22.2418 5.00033 21.2192 5.00032 20.1048L5.00007 4.82818C5.00004 3.17131 6.34319 1.82812 8.00007 1.82812H16.0002Z" fill="#CD6276" stroke="white" stroke-width="2"/>
<path d="M16.0004 14.8281H27.0002V20.356C27.0002 21.4923 26.3582 22.5311 25.3418 23.0393L15.9999 27.7101L6.65841 23.0393C5.64204 22.5311 5.00003 21.4923 5.00006 20.356L5.00019 14.8281H16.0004Z" fill="#CD6276" stroke="white" stroke-width="2"/>
</g>
<defs>
<filter id="filter0_d_270_59360" x="0" y="0.828125" width="32" height="36" filterUnits="userSpaceOnUse" color-interpolation-filters="sRGB">
<feFlood flood-opacity="0" result="BackgroundImageFix"/>
<feColorMatrix in="SourceAlpha" type="matrix" values="0 0 0 0 0 0 0 0 0 0 0 0 0 0 0 0 0 0 127 0" result="hardAlpha"/>
<feOffset dy="4"/>
<feGaussianBlur stdDeviation="2"/>
<feComposite in2="hardAlpha" operator="out"/>
<feColorMatrix type="matrix" values="0 0 0 0 0 0 0 0 0 0 0 0 0 0 0 0 0 0 0.25 0"/>
<feBlend mode="normal" in2="BackgroundImageFix" result="effect1_dropShadow_270_59360"/>
<feBlend mode="normal" in="SourceGraphic" in2="effect1_dropShadow_270_59360" result="shape"/>
</filter>
</defs>
</svg>
